<?xml version="1.0" standalone="no"?>
<!DOCTYPE svg PUBLIC "-//W3C//DTD SVG 20010904//EN"
 "http://www.w3.org/TR/2001/REC-SVG-20010904/DTD/svg10.dtd">
<svg version="1.0" xmlns="http://www.w3.org/2000/svg"
 width="841.000000pt" height="841.000000pt" viewBox="0 0 841.000000 841.000000"
 preserveAspectRatio="xMidYMid meet">
<metadata>
Created by potrace 1.14, written by Peter Selinger 2001-2017
</metadata>
<g transform="translate(0.000000,841.000000) scale(0.100000,-0.100000)"
fill="#000000" stroke="none">
<path d="M3940 8269 c-1034 -75 -1953 -483 -2676 -1186 -302 -294 -534 -599
-748 -988 -46 -84 -65 -110 -79 -107 -9 2 -50 -1 -90 -8 -90 -13 -191 -61
-279 -131 l-68 -54 0 -79 0 -79 28 24 c15 13 60 55 101 94 92 87 106 71 22
-26 -34 -38 -63 -80 -67 -93 -4 -16 -19 -29 -45 -39 l-39 -15 0 -61 0 -60 45
19 c25 11 45 16 45 12 0 -5 -20 -23 -45 -42 -31 -23 -45 -41 -45 -57 l0 -23
43 26 c23 15 61 40 85 56 24 17 45 28 48 25 11 -11 -12 -37 -91 -102 -139
-116 -103 -121 58 -8 43 31 79 54 81 52 2 -2 -1 -18 -5 -35 -6 -20 -24 -42
-49 -59 -50 -35 -53 -52 -3 -23 35 21 36 21 29 3 -4 -11 -18 -60 -31 -110
-209 -808 -151 -1700 160 -2470 100 -247 217 -474 351 -682 30 -47 54 -86 52
-88 -23 -20 -629 -133 -720 -135 -5 0 -8 -11 -8 -25 l0 -25 433 0 432 0 105
-127 c135 -164 371 -400 532 -535 947 -786 2192 -1121 3414 -917 718 119 1377
413 1954 873 153 122 507 475 615 613 l80 103 423 0 422 0 0 75 c0 72 -1 75
-23 75 -71 0 -366 34 -452 52 -55 12 -123 24 -152 27 l-51 6 64 102 c215 342
399 793 493 1209 111 497 126 1057 41 1545 -11 65 -11 65 -57 82 l-45 17 6
-25 c12 -46 45 -290 55 -405 16 -169 13 -543 -4 -718 -60 -593 -239 -1130
-548 -1644 -93 -155 -106 -171 -139 -166 -25 3 -25 5 68 152 300 480 483 1002
560 1601 26 194 26 692 1 879 -33 248 -39 274 -55 281 -8 3 -16 4 -18 3 -1 -2
6 -53 16 -113 33 -198 45 -354 44 -620 0 -347 -31 -602 -110 -920 -99 -396
-274 -799 -503 -1153 -64 -100 -67 -103 -99 -100 -22 3 -38 -2 -49 -14 -15
-17 -12 -18 73 -18 119 0 135 -11 64 -44 -44 -21 -69 -26 -125 -25 l-70 2 73
8 c40 5 84 15 99 23 28 14 27 14 -27 21 -38 5 -68 2 -97 -8 -34 -11 -43 -12
-43 -2 0 7 7 18 15 25 9 7 26 27 38 44 l22 31 -52 -37 c-28 -20 -53 -35 -55
-33 -2 3 11 51 30 107 92 275 142 682 142 1152 0 373 -23 646 -81 976 -28 161
-37 290 -21 290 5 0 21 -33 37 -72 33 -86 33 -87 46 -68 12 20 25 1 33 -50 3
-21 13 -43 21 -50 13 -11 15 1 15 99 0 67 4 111 10 111 6 0 10 -17 10 -37 0
-46 27 -204 36 -212 4 -3 5 21 2 54 -2 33 -2 76 2 95 5 32 7 27 28 -55 32
-129 82 -288 88 -282 5 4 -10 100 -32 210 -4 19 -2 27 9 27 10 0 22 -30 40
-97 l25 -98 2 60 c2 59 2 60 15 30 8 -16 26 -81 40 -142 15 -62 31 -115 36
-118 5 -4 9 19 9 52 0 100 14 95 53 -18 40 -117 51 -96 17 32 -24 89 -24 89
-6 89 7 0 24 -27 36 -60 13 -34 25 -58 28 -56 13 14 -44 164 -89 236 -17 27
-5 19 51 -35 l73 -70 -34 64 c-19 35 -53 85 -77 112 -24 27 -40 53 -37 59 5 8
12 7 23 -3 65 -55 44 -11 -29 62 -28 29 -67 64 -86 78 -18 14 -32 28 -29 30 6
6 78 -26 100 -45 18 -15 18 -14 -1 11 -12 16 -45 47 -72 69 -28 23 -51 48 -51
55 0 9 5 11 13 7 6 -4 30 -19 52 -32 25 -16 35 -19 26 -9 -7 9 -58 45 -112 79
-54 35 -99 69 -99 76 0 18 15 15 83 -19 91 -47 54 -11 -87 82 l-119 79 42 0
41 0 -51 65 c-28 36 -47 65 -42 65 6 0 36 -18 67 -41 62 -45 78 -47 46 -6 -38
48 -18 50 47 5 48 -32 50 -30 27 27 -5 13 9 4 40 -23 54 -49 71 -49 34 0 -45
61 -41 61 51 -1 50 -34 91 -59 91 -56 0 3 -27 35 -60 70 -53 57 -71 85 -55 85
3 0 42 -24 88 -53 45 -29 89 -57 96 -62 8 -5 5 6 -8 24 -31 43 -19 51 32 23
l42 -23 -45 38 c-25 21 -72 64 -105 96 l-60 58 55 -27 c30 -15 95 -56 145 -91
143 -103 161 -105 58 -6 -51 48 -93 94 -93 101 0 6 28 -7 63 -31 180 -125 277
-161 120 -45 -49 37 -95 74 -103 83 -22 26 60 -10 150 -65 141 -88 187 -104
78 -28 -49 35 -57 44 -40 46 11 2 43 -4 71 -12 43 -13 51 -13 51 -1 0 8 -8 19
-17 24 -17 10 -17 10 0 11 9 0 17 8 17 18 0 19 -85 57 -150 68 -72 12 -148 45
-154 67 -3 12 -28 50 -57 84 -85 104 -51 96 64 -15 59 -56 111 -102 117 -102
11 0 -6 35 -36 78 -26 36 -2 26 77 -32 69 -51 117 -76 103 -55 -3 5 -73 70
-157 144 -181 162 -241 196 -357 203 -64 3 -94 -1 -205 -33 -150 -42 -195 -65
-254 -132 -82 -93 -95 -106 -99 -95 -2 6 2 20 8 31 7 14 7 21 0 21 -17 0 -11
26 11 46 33 29 42 53 28 70 -9 11 -8 14 3 14 14 0 58 40 58 53 0 4 -22 -4 -49
-17 -27 -14 -51 -22 -55 -19 -4 4 22 36 56 71 l63 65 -57 -31 c-32 -18 -63
-32 -68 -32 -23 0 27 62 72 92 27 16 48 32 48 35 0 2 -14 2 -31 -2 -29 -7 -30
-6 -19 14 6 12 29 35 52 51 43 31 38 35 -24 21 -20 -5 -39 -7 -42 -4 -2 3 9
27 25 54 15 27 24 49 19 49 -13 0 -70 -72 -76 -97 -4 -13 -12 -23 -20 -23 -8
0 -14 10 -15 23 0 15 -5 9 -16 -20 -15 -45 -29 -55 -35 -25 -3 9 -8 -7 -12
-36 -7 -48 -9 -51 -22 -35 -16 19 -16 13 2 -109 l6 -43 -22 20 -21 19 20 -52
c25 -63 26 -68 6 -52 -12 10 -15 10 -15 -4 0 -32 -21 -15 -44 38 -13 29 -34
60 -46 69 -12 8 -33 32 -47 52 -14 20 -27 34 -31 31 -3 -4 -30 17 -59 46 -30
29 -51 45 -47 35 5 -14 -6 -11 -57 16 -35 19 -77 38 -94 42 l-30 6 35 -26 c19
-14 56 -40 83 -57 26 -16 47 -36 47 -44 0 -17 2 -17 -50 1 -72 25 -79 16 -10
-13 50 -21 60 -28 41 -30 -19 -3 -15 -8 29 -28 53 -24 60 -48 12 -39 -15 3 3
-10 40 -27 77 -38 82 -62 10 -48 -23 4 -42 6 -42 5 0 -2 28 -21 63 -44 40 -26
63 -48 64 -61 1 -11 -4 -20 -10 -20 -7 -1 -1 -7 12 -14 17 -10 20 -15 10 -18
-9 -4 -5 -10 14 -18 15 -8 26 -19 23 -26 -3 -8 9 -18 29 -26 37 -13 46 -28 18
-28 -12 0 -4 -14 29 -47 56 -58 68 -81 68 -127 0 -22 5 -36 13 -36 6 -1 -22
-18 -63 -39 -41 -22 -76 -38 -78 -36 -8 7 33 57 57 70 24 13 16 14 -86 15 -62
0 -113 3 -113 8 1 4 16 25 35 47 33 38 35 39 35 15 0 -24 3 -25 73 -28 l72 -2
-72 41 c-114 63 -404 139 -535 139 -75 0 -189 -17 -202 -31 -6 -5 0 -9 16 -9
33 0 58 -9 58 -22 0 -5 -23 -9 -52 -8 -87 4 -105 1 -129 -21 l-24 -20 23 6
c35 10 27 -21 -9 -34 -33 -11 -133 -81 -126 -87 2 -2 24 4 48 15 24 10 55 22
69 25 24 7 25 7 5 -9 -11 -9 -45 -29 -76 -45 -31 -16 -70 -40 -86 -54 -37 -31
-46 -33 -38 -5 6 18 5 19 -13 10 -39 -21 -91 -113 -137 -244 -30 -85 -36 -91
-65 -82 -19 6 -19 8 -5 35 20 38 19 43 -5 37 -25 -6 -25 1 0 33 25 32 25 39 0
33 -26 -7 -26 9 1 25 12 7 18 16 15 19 -3 4 3 17 15 29 l21 22 -39 -9 c-58
-13 -58 -12 -6 36 33 31 43 44 31 45 -20 0 -24 15 -8 25 18 11 11 35 -7 28
-16 -6 -17 -5 -3 12 14 17 13 18 -2 12 -23 -8 -23 -2 3 39 11 19 16 34 10 34
-6 0 -17 -11 -23 -25 -11 -25 -38 -35 -38 -13 0 26 -12 -3 -20 -49 -6 -39 -9
-44 -15 -25 -10 30 -25 28 -25 -3 0 -14 -5 -25 -11 -25 -7 0 -8 -7 -4 -17 11
-29 15 -112 4 -118 -5 -4 -18 13 -28 37 -21 46 -28 47 -10 1 6 -15 15 -41 20
-56 7 -25 6 -27 -6 -17 -20 17 -19 7 6 -42 15 -28 17 -43 10 -48 -8 -4 -2 -25
19 -64 34 -66 41 -109 10 -61 -32 49 -23 11 14 -57 29 -53 62 -148 51 -148 -2
0 -18 25 -35 55 -29 51 -100 144 -100 131 0 -14 -40 35 -65 81 -21 37 -33 49
-46 46 -11 -3 -16 -11 -12 -21 3 -10 -11 2 -31 25 -26 30 -45 43 -64 43 -16 0
-35 11 -54 33 -19 22 -26 26 -21 12 6 -19 4 -18 -19 3 -14 13 -38 25 -54 28
l-29 5 25 -17 c14 -10 27 -19 30 -21 2 -2 -2 -8 -10 -13 -11 -7 -3 -14 33 -30
26 -12 45 -25 42 -31 -4 -5 -1 -9 4 -9 22 0 10 -20 -11 -21 -21 -1 -21 -2 -3
-6 51 -13 69 -24 56 -33 -11 -6 -6 -12 18 -24 17 -9 29 -21 26 -26 -3 -5 7
-10 22 -12 36 -4 41 -32 10 -53 -23 -15 -29 -15 -61 -1 -20 8 -34 11 -31 6 12
-19 -16 -20 -54 0 -22 11 -48 20 -58 19 -12 0 -8 -5 12 -14 l30 -14 -40 -1
c-26 0 -35 -3 -26 -9 9 -6 -9 -13 -53 -22 -89 -17 -91 -19 -77 -62 8 -25 17
-34 27 -30 17 6 18 -1 3 -30 -6 -12 16 6 48 41 48 51 62 61 71 50 8 -11 2 -25
-28 -63 -58 -73 -58 -101 -1 -36 27 29 51 49 55 43 9 -16 -74 -133 -110 -154
-31 -18 -33 -23 -28 -61 2 -23 11 -102 19 -176 15 -145 31 -197 20 -63 -8 85
-2 105 14 50 7 -25 9 -27 10 -11 1 32 20 38 31 11 6 -16 7 3 3 60 -7 99 6 108
35 25 16 -45 21 -52 21 -30 1 18 6 27 17 27 14 0 15 9 10 58 -5 55 -5 56 9 27
8 -16 14 -36 15 -42 0 -7 4 -13 10 -13 5 0 8 13 6 30 -4 38 5 46 21 18 12 -22
12 -21 13 13 0 41 8 53 25 39 9 -8 14 -2 18 20 8 40 27 38 28 -2 0 -18 3 -27
6 -20 4 9 8 10 18 2 10 -9 15 -4 20 20 8 35 32 40 37 8 3 -19 7 -16 33 22 l30
43 5 -29 6 -29 7 25 c5 19 9 22 18 13 15 -15 3 -62 -19 -70 -30 -11 -155 -109
-198 -154 -73 -77 -155 -192 -196 -274 -37 -74 -40 -84 -34 -138 3 -32 11 -68
18 -80 12 -20 13 -18 16 26 2 33 7 47 18 47 10 0 14 -14 16 -52 1 -39 2 -44 5
-18 7 62 12 68 35 40 16 -20 19 -21 13 -5 -3 11 -9 43 -11 70 l-5 50 20 -24
c13 -14 21 -18 21 -10 0 8 10 1 21 -16 l21 -30 -5 80 c-5 74 -5 78 9 53 18
-35 26 -36 18 -3 -7 29 12 34 31 8 11 -15 12 -11 8 25 -5 44 10 59 23 20 6
-19 7 -19 16 -4 6 10 6 40 0 79 -5 34 -8 65 -5 70 11 18 23 4 29 -34 5 -29 11
-39 21 -35 7 3 16 -1 19 -9 5 -11 17 -1 46 35 38 48 58 62 58 39 0 -6 -20 -39
-45 -73 -46 -65 -57 -88 -30 -66 9 7 18 10 22 7 3 -4 12 1 19 11 22 28 17 -3
-12 -74 -14 -36 -24 -67 -21 -70 2 -2 16 14 31 36 32 48 38 50 25 8 -14 -49
-10 -68 6 -30 14 33 35 43 35 18 0 -8 -9 -44 -21 -81 -11 -36 -18 -72 -15 -78
2 -7 8 -2 11 11 4 12 14 22 21 22 14 0 17 -10 17 -70 0 -32 0 -33 4 -5 4 28 7
24 39 -44 19 -41 37 -71 40 -68 4 4 2 19 -4 34 -8 23 -10 72 -3 92 0 2 7 -2
14 -8 11 -8 13 -4 12 24 0 19 -6 40 -13 47 -7 7 -12 17 -12 22 0 6 17 -7 38
-27 70 -68 56 -38 -16 37 -67 69 -88 106 -60 106 7 0 35 -21 62 -47 l49 -48
-23 38 c-27 46 -19 59 15 27 41 -39 29 -8 -30 74 -56 78 -61 99 -10 46 40 -41
44 -29 6 18 -17 22 -31 43 -31 46 0 13 28 5 45 -14 22 -24 37 -26 28 -3 -4 11
-3 14 5 9 15 -9 15 -1 1 26 -9 16 -8 19 2 13 8 -6 10 -4 3 6 -85 137 -97 174
-37 118 l37 -34 -19 30 c-10 17 -25 40 -33 52 -24 37 -3 45 29 10 l30 -32 -26
59 c-28 66 -28 66 -16 66 19 0 223 -339 297 -495 79 -167 116 -268 209 -580
139 -464 186 -637 191 -705 3 -36 8 -81 10 -100 3 -19 8 -69 11 -109 4 -66 3
-73 -10 -62 -11 9 -10 2 4 -26 37 -72 26 -77 -54 -23 -65 44 -147 87 -147 76
0 -2 33 -23 73 -46 84 -50 174 -123 159 -128 -6 -2 -20 1 -30 7 -15 8 -21 7
-26 -4 -8 -21 -79 -20 -97 1 -11 14 -10 16 11 14 41 -4 46 0 20 15 -17 10 -59
14 -136 15 -61 0 -152 3 -203 7 l-92 6 3 36 3 36 164 3 164 3 -52 36 c-29 21
-49 39 -43 41 14 4 130 -36 170 -59 18 -10 45 -19 59 -19 25 0 25 1 -16 45
-55 60 -52 73 9 29 l50 -36 0 44 c0 37 -8 56 -50 115 -65 92 -68 123 -7 66 21
-21 13 -2 -33 70 -34 55 -59 102 -55 105 3 3 30 -20 60 -52 31 -33 55 -51 55
-42 0 25 -221 777 -273 931 -13 39 -43 115 -67 170 -41 98 -43 101 -118 156
-43 32 -94 67 -114 79 -34 20 -38 20 -38 5 0 -16 -2 -16 -27 0 l-26 18 21 -31
c24 -33 27 -49 12 -54 -5 -1 1 -25 15 -52 30 -59 34 -86 9 -65 -15 12 -16 11
-10 -8 13 -41 -16 -36 -67 13 -28 27 -17 12 26 -33 42 -46 77 -87 77 -92 0
-22 -20 -19 -52 6 -18 15 -27 20 -19 10 11 -14 12 -20 3 -26 -9 -5 -8 -12 3
-27 8 -10 15 -22 15 -26 0 -14 -27 -8 -40 7 -17 21 -24 12 -11 -14 10 -17 9
-20 -4 -15 -13 5 -13 2 1 -31 8 -20 13 -40 10 -43 -4 -3 -26 15 -50 41 -35 36
-46 42 -49 29 -2 -12 -9 -6 -22 21 -16 32 -31 42 -57 38 -11 -1 -21 65 -14 96
3 16 3 22 0 16 -3 -7 -12 -13 -20 -13 -14 0 -14 4 3 75 4 18 2 17 -15 -4 l-19
-24 -7 27 c-4 15 -4 37 0 49 6 19 5 20 -9 9 -18 -15 -33 0 -21 21 5 8 2 8 -9
-2 -19 -15 -22 -5 -7 34 8 20 7 30 -5 41 -13 14 -15 13 -17 -8 -2 -42 -3 -47
-11 -55 -5 -4 -12 -1 -17 7 -7 11 -10 6 -10 -17 0 -37 -6 -41 -27 -15 -13 16
-14 15 -8 -6 4 -15 1 -24 -9 -28 -11 -4 -16 -19 -16 -43 0 -45 -8 -55 -28 -38
-13 9 -14 9 -8 0 4 -8 1 -13 -8 -13 -9 0 -16 5 -16 12 0 6 -2 9 -5 6 -3 -2 -1
-26 4 -51 10 -55 -7 -65 -30 -19 -13 26 -14 24 -17 -42 -3 -64 -1 -71 25 -98
15 -16 56 -49 89 -73 120 -86 221 -217 272 -353 20 -54 26 -90 30 -193 2 -76
0 -147 -8 -182 l-11 -57 -41 0 c-40 0 -40 0 -34 32 3 18 9 80 12 138 13 231
-71 396 -286 560 -124 94 -191 182 -219 285 -11 43 -28 193 -61 535 -24 249
-29 273 -69 361 -70 155 -62 274 29 414 63 96 88 177 102 324 7 76 17 131 23
131 5 0 34 -11 64 -25 50 -24 54 -24 66 -8 12 16 19 13 91 -34 154 -101 220
-123 318 -109 l46 7 0 93 c0 397 -87 752 -238 976 -33 47 -33 47 11 97 l20 22
-40 40 c-43 43 -63 94 -63 159 0 86 -18 136 -73 197 -114 128 -257 219 -393
251 -142 32 -201 98 -299 329 -61 142 -97 194 -135 195 -67 1 -247 -153 -296
-255 -27 -56 -29 -68 -29 -182 0 -68 -3 -123 -7 -123 -4 0 -51 20 -104 45 -54
25 -104 43 -111 40 -8 -2 -23 -24 -33 -47 -29 -63 -26 -153 9 -279 16 -57 32
-117 35 -134 l6 -30 -160 -79 c-88 -44 -160 -81 -160 -82 0 -2 16 -20 35 -41
19 -21 35 -41 35 -45 0 -4 -15 -10 -34 -13 -18 -4 -56 -20 -84 -36 -58 -33
-72 -62 -52 -109 10 -24 10 -33 -1 -47 -8 -9 -13 -24 -11 -35 2 -11 -3 -18
-12 -18 -23 0 -84 -58 -106 -99 -21 -40 -192 -222 -254 -271 -61 -48 -134 -39
-421 53 -125 40 -432 127 -450 127 -3 0 -20 -30 -37 -66 -23 -50 -29 -74 -25
-101 9 -50 53 -102 124 -143 90 -52 179 -126 222 -184 22 -28 80 -134 131
-236 96 -194 158 -292 212 -334 30 -23 33 -29 30 -78 -7 -156 -3 -225 19 -298
14 -50 23 -112 26 -187 4 -98 7 -113 22 -113 14 0 23 -37 59 -230 31 -170 47
-238 63 -259 14 -19 21 -46 24 -92 1 -35 3 -70 4 -76 1 -7 12 -13 25 -13 21 0
27 -9 46 -72 14 -50 30 -81 50 -98 18 -16 36 -50 50 -93 12 -37 32 -80 45 -95
62 -74 67 -119 29 -231 -32 -92 -29 -161 10 -247 14 -31 26 -58 26 -61 0 -2
-21 -3 -47 -1 l-46 3 -23 60 c-33 85 -32 183 1 272 27 70 26 111 -1 134 -20
16 -58 92 -74 144 -7 26 -22 46 -39 56 -20 12 -31 31 -44 79 -14 49 -27 71
-55 95 -35 31 -36 35 -40 106 -3 52 -9 80 -22 94 -11 13 -27 72 -44 170 -15
84 -33 156 -42 165 -9 9 -14 10 -14 3 0 -7 5 -15 10 -18 6 -3 10 -10 10 -16 0
-14 -22 -11 -42 8 -18 16 -19 16 -8 -12 6 -17 8 -45 5 -63 l-6 -34 -25 33
c-27 36 -29 32 -13 -24 6 -22 8 -46 4 -55 -6 -15 -8 -15 -21 3 -14 19 -15 18
-9 -17 8 -41 -2 -101 -15 -93 -5 3 -11 1 -15 -4 -3 -6 -11 -8 -18 -5 -8 3 -18
-9 -25 -30 -7 -19 -19 -40 -27 -46 -13 -10 -15 -9 -15 11 0 21 -2 20 -25 -11
-27 -36 -85 -79 -85 -62 0 5 7 27 16 48 15 35 15 37 0 25 -20 -17 -20 -8 -1
29 19 37 11 38 -20 3 -18 -21 -26 -25 -35 -17 -9 9 -8 18 5 37 10 16 12 27 6
32 -7 4 -5 16 7 33 17 26 16 26 -24 -5 -23 -18 -47 -33 -53 -33 -29 0 -3 40
79 119 49 48 90 92 90 97 0 4 -27 -18 -59 -50 -40 -40 -65 -57 -75 -53 -20 8
-20 21 -1 37 8 7 15 17 15 23 0 6 -11 0 -25 -13 -34 -32 -33 -9 3 64 16 31 27
56 25 56 -8 0 -119 -73 -188 -123 -152 -111 -205 -158 -221 -195 -49 -118
-354 -1100 -354 -1143 0 -4 32 25 70 63 39 39 73 68 76 65 3 -3 -25 -52 -63
-109 -91 -135 -93 -140 -46 -95 60 57 63 29 6 -49 -26 -37 -54 -74 -61 -84
-14 -19 -29 -120 -18 -120 4 0 34 18 67 40 32 23 59 38 59 34 0 -3 -14 -24
-31 -45 l-31 -39 38 0 c21 0 69 11 108 24 88 30 134 40 121 28 -5 -5 -23 -18
-39 -30 l-29 -22 32 0 c32 0 42 -19 19 -38 -7 -6 -64 -36 -127 -67 -77 -38
-110 -60 -103 -67 7 -7 17 -6 32 2 23 13 36 8 25 -9 -8 -14 -115 -15 -115 -1
0 5 14 16 30 25 55 28 31 25 -32 -5 -34 -16 -64 -27 -67 -24 -3 3 -1 8 5 12 6
4 30 23 55 43 24 20 86 60 137 88 50 29 92 54 92 56 0 7 -102 -35 -140 -57
-19 -12 -57 -37 -84 -57 l-49 -35 6 37 c3 20 16 52 28 70 12 17 16 26 9 19
-25 -22 -30 -13 -30 57 0 64 3 73 35 115 38 50 36 60 -3 24 l-25 -23 7 29 c4
16 24 54 45 85 41 61 70 112 53 96 -5 -5 -28 -37 -51 -69 -45 -66 -48 -61 -26
46 21 98 255 866 324 1058 68 191 186 434 286 585 29 44 64 100 78 125 76 134
176 245 117 130 -11 -22 -25 -53 -31 -68 -9 -25 -7 -24 30 12 22 22 44 37 47
33 4 -4 -14 -39 -41 -79 l-47 -73 52 50 c51 49 52 49 46 20 -7 -29 -30 -67
-78 -129 -19 -25 -20 -29 -4 -23 16 6 15 3 -4 -28 -17 -27 -18 -34 -6 -29 11
4 16 1 16 -11 0 -13 8 -10 36 14 19 17 40 29 45 26 11 -7 7 -16 -31 -65 -47
-62 -45 -66 10 -20 57 47 58 41 5 -25 -44 -56 -85 -118 -85 -129 0 -6 15 5 34
23 47 46 52 25 9 -40 l-37 -54 76 67 c41 37 78 65 81 61 17 -16 1 -40 -85
-130 -55 -57 -75 -83 -50 -63 24 19 53 42 65 50 22 15 21 15 -1 -24 -16 -26
-20 -42 -13 -50 7 -9 5 -20 -6 -37 l-16 -24 26 24 c32 29 45 22 28 -15 -10
-22 -9 -25 2 -21 12 4 10 -6 -4 -46 l-19 -52 29 34 c17 19 42 62 56 95 l26 61
-5 -54 c-3 -29 -2 -50 2 -47 4 4 9 37 12 74 3 40 10 67 18 70 7 2 12 -5 12
-18 0 -12 7 -28 15 -36 13 -14 15 -13 15 7 0 13 -12 60 -27 106 -21 64 -24 86
-15 95 9 9 17 -1 36 -43 29 -62 32 -57 11 21 -8 30 -13 56 -11 57 2 2 19 -20
37 -49 42 -64 52 -43 15 31 -27 53 -36 105 -15 84 9 -9 15 -8 25 2 19 19 19
20 -32 87 -34 43 -43 62 -34 68 7 5 24 -6 46 -29 l33 -36 1 89 c0 99 -33 246
-56 246 -8 0 -17 15 -22 33 -10 35 -7 47 11 47 8 0 11 19 9 62 -2 34 1 80 8
101 11 37 10 41 -16 68 -15 15 -31 26 -35 23 -5 -3 -26 -35 -49 -72 -31 -53
-40 -62 -40 -42 0 14 14 54 30 89 l31 64 -47 70 c-33 50 -48 66 -54 56 -13
-20 -44 13 -59 62 -28 91 -142 312 -159 307 -4 -1 -17 3 -29 10 -29 16 -29 11
2 -34 36 -54 31 -60 -12 -13 -22 25 -70 58 -122 84 -82 41 -144 82 -111 72 63
-18 127 -41 138 -50 7 -5 15 -8 17 -5 13 13 -156 118 -190 118 -9 0 -15 6 -12
13 2 6 16 12 30 12 34 -1 34 7 -1 27 -40 23 -80 29 -145 19 -34 -4 -60 -4 -63
1 -9 14 1 20 53 33 l48 12 -60 14 c-36 8 -116 13 -200 13 -147 -1 -187 -8
-430 -73 -61 -17 -114 -26 -119 -21 -11 11 15 23 99 45 39 10 80 26 92 35 22
17 22 18 -27 24 -40 5 -50 10 -50 26 0 11 5 18 13 16 6 -3 50 -7 97 -10 80 -5
83 -5 58 9 -16 9 -28 17 -28 20 0 2 44 1 98 -1 90 -5 95 -4 67 10 l-30 14 40
2 c109 6 99 16 -33 34 -107 15 -132 22 -130 34 2 12 20 15 88 14 l85 0 -65 13
c-36 8 -76 14 -89 15 -18 0 -22 3 -14 11 16 16 128 22 195 11 32 -5 55 -5 52
0 -3 4 -11 8 -17 9 -7 0 -30 9 -52 19 l-40 18 95 -4 c89 -5 93 -4 65 10 l-30
14 50 2 c96 4 118 19 47 35 -48 10 -30 22 46 31 60 8 63 9 29 14 -21 3 -38 10
-39 15 -1 6 19 20 43 33 38 20 40 22 14 18 -16 -3 -93 -10 -170 -16 -77 -5
-163 -16 -191 -25 -91 -27 -161 -88 -219 -190 -36 -63 -110 -157 -206 -259
-41 -44 -65 -76 -54 -72 10 4 40 9 65 12 l45 6 -85 -47 c-47 -26 -86 -48 -88
-50 -1 -1 37 -1 85 1 80 3 88 5 93 25 5 20 8 18 43 -20 20 -22 37 -43 37 -46
0 -3 -73 -5 -161 -5 l-162 0 5 52 c5 49 10 56 67 110 49 46 57 58 40 58 -33 0
-17 22 29 39 41 15 55 31 30 31 -7 1 5 10 27 22 25 13 35 23 26 26 -9 3 -3 11
20 24 19 10 24 16 12 13 -25 -7 -42 12 -18 21 12 5 13 9 5 14 -7 4 19 26 65
55 42 26 74 49 72 51 -2 2 -26 0 -53 -5 -58 -11 -81 6 -36 26 142 65 140 64
100 59 -60 -7 -47 18 23 45 55 22 58 24 32 29 -24 5 -19 8 45 34 40 15 71 31
68 34 -3 3 -35 -3 -71 -13 -112 -30 -102 -10 39 79 50 31 82 56 73 56 -26 0
-129 -41 -166 -66 -38 -26 -52 -24 -30 2 30 37 -26 -4 -75 -55 -28 -28 -53
-46 -56 -41 -4 6 -21 -10 -38 -34 -18 -25 -45 -54 -60 -65 -15 -10 -41 -47
-57 -80 -29 -63 -45 -77 -45 -41 0 18 -3 19 -21 9 -12 -6 -19 -7 -16 -2 3 5
15 33 26 61 20 51 20 52 2 42 -29 -15 -29 -14 -21 33 4 23 10 64 14 91 l6 48
-19 -23 -19 -23 -9 74 c-6 41 -11 60 -12 43 -2 -51 -25 -39 -45 22 -19 62 -32
73 -22 20 11 -55 -17 -44 -53 20 -27 48 -75 95 -86 84 -2 -3 12 -29 30 -59 19
-30 30 -56 25 -58 -6 -2 -33 1 -61 7 -29 6 -53 10 -55 8 -2 -1 18 -18 43 -37
25 -19 53 -45 61 -58 15 -23 15 -24 -21 -17 -20 4 -37 5 -37 2 0 -4 20 -18 45
-32 44 -26 105 -87 105 -105 0 -12 -31 0 -90 34 -25 14 -49 26 -53 26 -5 0 24
-31 65 -69 40 -38 70 -72 66 -76 -4 -4 -35 4 -68 19 -34 14 -64 26 -68 26 -3
0 9 -16 28 -35 19 -19 40 -35 47 -35 16 0 17 -12 1 -28 -9 -9 -3 -22 31 -56
38 -38 41 -45 26 -53 -16 -9 -16 -12 -1 -41 9 -18 12 -32 7 -32 -11 0 -36 25
-113 113 -52 60 -100 88 -208 123 -47 14 -87 28 -89 30 -6 5 99 194 176 317
241 379 589 757 948 1028 607 458 1287 723 2065 805 199 20 700 15 888 -10
371 -50 677 -127 1009 -257 990 -388 1809 -1185 2209 -2152 28 -67 57 -123 67
-129 17 -8 18 -7 12 14 -17 57 -113 274 -171 388 -474 932 -1293 1637 -2297
1979 -923 314 -1963 285 -2866 -81 -869 -352 -1568 -972 -2025 -1795 -47 -85
-59 -100 -76 -96 -26 7 -25 13 6 76 238 471 666 973 1129 1323 676 511 1458
792 2316 833 946 45 1877 -233 2638 -787 492 -359 893 -817 1178 -1347 75
-140 173 -354 217 -475 23 -63 37 -84 84 -127 31 -29 58 -49 60 -45 1 5 -15
58 -37 118 -217 605 -542 1111 -1007 1564 -677 660 -1552 1066 -2509 1165
-186 19 -540 27 -705 14z m-3464 -2538 c-54 -84 -87 -98 -54 -23 24 55 78 116
91 103 6 -6 -9 -37 -37 -80z m174 65 c0 -7 -18 -36 -41 -65 -42 -53 -42 -65 1
-31 14 11 28 20 33 20 13 0 8 -27 -8 -40 -31 -26 -13 -27 52 -3 90 33 112 23
48 -22 -48 -34 -107 -47 -120 -26 -3 5 -18 10 -33 10 -15 0 -43 4 -62 9 l-35
8 74 77 c75 77 91 89 91 63z m-429 -95 c-38 -59 -57 -76 -96 -85 l-30 -8 25
29 c114 130 163 162 101 64z m109 -1 c-11 -22 -24 -40 -29 -40 -5 0 -18 -3
-28 -7 -11 -4 -3 11 22 40 49 57 62 60 35 7z m130 -40 c0 -5 -5 -10 -11 -10
-5 0 -7 5 -4 10 3 6 8 10 11 10 2 0 4 -4 4 -10z m435 -39 c3 -5 -9 -21 -27
-36 l-33 -26 33 5 c17 3 47 9 65 12 l32 6 -30 -26 -30 -25 53 -1 53 0 -28 -25
c-20 -17 -24 -24 -12 -25 22 0 48 -31 59 -69 5 -17 7 -31 4 -31 -27 0 -82 40
-138 101 -37 40 -81 82 -98 92 -36 21 -29 32 27 46 54 12 63 13 70 2z m1029
-219 c43 -125 54 -145 71 -138 8 3 17 1 20 -5 10 -15 25 0 26 24 0 16 6 10 20
-22 24 -54 31 -50 18 8 -14 61 5 79 26 25 9 -21 24 -57 34 -79 l19 -40 -5 106
c-5 90 -4 107 10 112 12 5 18 -5 26 -44 6 -28 11 -59 11 -70 0 -32 31 -161 38
-155 3 3 8 22 11 43 9 57 27 51 39 -14 9 -54 10 -52 5 32 -3 50 -2 87 2 83 6
-6 65 -213 65 -230 0 -17 -30 -7 -44 14 -13 18 -16 19 -16 5 0 -12 -8 -17 -32
-17 -22 0 -60 19 -129 65 -54 36 -126 78 -161 94 -97 44 -138 91 -153 176 l-7
40 48 -62 c27 -34 50 -61 52 -59 1 2 -11 58 -28 124 -16 67 -30 124 -30 129 1
18 30 -48 64 -145z m-1569 78 c-10 -11 -21 -17 -24 -14 -3 3 3 12 13 20 28 20
32 17 11 -6z m1213 -53 c51 -44 82 -49 74 -12 -7 37 8 31 60 -27 l47 -53 1 33
c0 42 16 41 30 -3 7 -20 22 -43 35 -51 13 -8 26 -21 28 -28 6 -16 -17 -11
-150 33 -51 17 -118 34 -150 37 -77 9 -89 16 -113 70 -24 55 -24 54 -7 54 6 0
29 -16 49 -35 20 -19 39 -35 42 -35 3 0 -2 19 -10 42 -16 47 -21 49 64 -25z
m6127 -67 c26 -27 52 -47 56 -45 3 3 18 -5 33 -16 34 -27 33 -21 -9 42 -19 30
-35 57 -35 61 0 22 32 2 90 -57 52 -52 60 -65 47 -71 -10 -3 -26 -4 -36 -1
-10 2 -47 -2 -82 -9 -35 -8 -69 -12 -76 -9 -7 2 -15 0 -18 -5 -18 -29 -135 19
-135 55 0 12 11 10 55 -7 31 -11 59 -17 63 -13 4 4 1 10 -5 12 -14 5 -18 33
-5 33 4 0 18 -8 31 -17 27 -18 24 -10 -16 43 -23 31 -30 54 -15 54 4 0 30 -22
57 -50z m-7269 2 c-8 -15 -24 -36 -36 -47 l-23 -20 7 30 c7 29 38 65 57 65 5
0 3 -12 -5 -28z m7671 -128 c-1 -1 -15 0 -30 3 -20 4 -39 22 -68 64 -22 33
-37 64 -34 69 3 5 35 -23 70 -62 35 -40 63 -73 62 -74z m-6887 109 c27 -19 59
-54 60 -65 0 -8 -150 58 -164 73 -18 17 78 10 104 -8z m6713 -28 c37 -44 36
-56 -4 -35 -16 9 -49 58 -49 75 0 15 20 0 53 -40z m-7452 -23 c-17 -22 -31
-45 -31 -52 0 -11 19 1 89 57 l34 28 -16 -32 c-28 -53 -20 -56 42 -13 67 45
86 39 45 -15 -14 -19 -22 -35 -17 -35 5 0 40 20 78 45 74 47 98 56 73 28 -8
-10 -36 -44 -62 -75 l-48 -58 48 0 49 0 -94 -56 c-94 -54 -235 -153 -228 -160
1 -2 41 15 87 37 63 30 85 37 91 27 4 -7 7 -13 6 -14 -1 0 -58 -36 -127 -79
-141 -88 -189 -126 -89 -72 61 34 79 37 79 16 0 -5 -13 -15 -29 -24 -34 -17
-154 -125 -147 -132 2 -3 17 5 33 16 15 11 46 27 68 36 l40 16 -40 -36 c-22
-20 -70 -66 -107 -102 -63 -60 -68 -63 -68 -39 0 80 57 401 101 566 l20 75 72
46 c40 25 74 45 76 43 2 -2 -11 -21 -28 -42z m-137 11 c-3 -16 -15 -43 -25
-60 -10 -18 -15 -33 -10 -33 4 0 -3 -44 -16 -97 -36 -150 -70 -351 -88 -533
-15 -139 -21 -172 -42 -207 -14 -24 -27 -43 -29 -43 -2 0 -2 17 1 38 2 20 7
82 10 137 12 198 44 399 101 635 28 116 40 149 60 168 34 30 46 28 38 -5z
m536 10 c-1 -25 -29 -58 -67 -77 -57 -29 -58 -17 -3 39 58 59 70 65 70 38z
m6643 -79 c24 -7 21 -20 -10 -40 -16 -9 -48 -41 -72 -71 -39 -49 -93 -93 -113
-93 -19 0 -5 44 21 71 l29 29 -21 15 c-22 15 -18 19 20 15 37 -3 45 10 21 31
-21 19 -21 20 -3 15 11 -2 36 -7 55 -11 l35 -6 -28 21 c-46 37 -17 47 66 24z
m-5832 -166 c0 -89 4 -135 9 -123 5 11 9 34 10 50 0 17 7 44 16 60 13 28 14
19 10 -100 l-4 -130 19 63 c27 84 44 73 34 -22 -5 -39 -8 -81 -8 -92 1 -16
-10 -27 -38 -40 -22 -9 -38 -23 -37 -31 2 -7 -16 -24 -38 -38 -32 -19 -44 -22
-52 -12 -19 24 -92 164 -92 176 0 7 22 -3 50 -23 31 -22 50 -31 50 -23 0 16
-56 93 -124 171 -40 46 -46 59 -36 71 7 9 9 26 5 45 -7 33 11 130 25 130 13 0
20 -29 20 -81 0 -54 15 -66 25 -19 12 53 26 38 41 -43 10 -61 23 -52 23 16 0
35 6 76 13 92 l13 28 6 -24 c4 -13 7 -54 8 -91 1 -38 5 -68 11 -68 6 0 10 40
10 100 0 82 3 100 15 100 13 0 15 -23 16 -142z m4913 8 c-14 -60 -24 -110 -21
-112 2 -2 20 19 40 48 38 54 44 50 27 -14 -15 -52 -56 -97 -110 -121 -25 -11
-88 -49 -140 -84 -72 -49 -102 -64 -125 -62 -17 2 -36 0 -43 -5 -28 -17 -28 9
-3 106 l26 103 6 -55 c3 -30 6 -43 7 -27 3 48 32 25 32 -26 0 -77 48 119 50
206 0 4 9 7 19 7 17 0 18 -7 15 -87 -4 -91 -2 -92 30 -10 21 52 39 49 32 -5
-5 -38 -5 -40 5 -15 13 33 29 35 29 5 0 -17 3 -19 9 -9 5 7 14 11 19 7 14 -8
35 31 56 104 20 68 57 162 62 157 3 -2 -7 -52 -22 -111z m321 15 c-20 -40 -10
-39 32 1 39 38 49 32 33 -17 -14 -44 -40 -61 -103 -69 -27 -3 -89 -20 -139
-36 -50 -17 -96 -29 -101 -27 -5 1 2 16 17 32 14 16 29 39 32 52 8 32 24 29
24 -4 1 -28 1 -28 38 15 41 47 52 52 52 22 0 -11 4 -20 8 -20 12 0 84 52 101
74 21 25 25 12 6 -23z m-5792 -7 c7 -7 -73 -124 -84 -124 -31 0 -14 46 34 98
32 33 39 37 50 26z m26 -106 c-12 -23 -46 -78 -77 -121 -30 -43 -52 -80 -49
-83 2 -3 46 40 97 96 51 55 95 98 97 96 6 -6 -39 -76 -118 -179 -38 -50 -69
-95 -69 -100 0 -5 27 16 61 47 33 31 64 54 69 51 5 -3 -20 -55 -55 -115 -87
-148 -93 -163 -43 -105 57 67 212 224 202 205 -4 -8 -38 -62 -74 -120 -89
-141 -88 -140 -44 -99 21 20 49 42 61 48 47 24 44 10 -13 -59 -67 -81 -76
-102 -30 -67 62 48 71 28 22 -46 -24 -36 -53 -93 -65 -128 l-21 -64 75 75 c53
53 78 71 86 63 7 -7 6 -21 -5 -47 -9 -20 -23 -53 -31 -73 l-16 -38 40 45 c22
25 42 42 45 39 3 -3 -14 -64 -39 -135 -46 -132 -73 -270 -60 -301 5 -14 12 -5
29 39 12 31 25 60 30 65 5 4 6 -50 2 -122 l-6 -130 20 35 c41 73 80 179 88
241 l9 64 26 -57 c33 -71 49 -83 42 -31 -5 38 -25 249 -25 265 0 4 6 8 13 8 8
0 22 -26 32 -60 10 -33 23 -60 28 -60 10 0 5 128 -9 233 -6 40 -4 47 9 41 9
-3 25 -24 37 -47 l21 -42 -6 50 c-4 28 -14 82 -22 120 -26 124 -28 155 -9 155
9 0 16 -6 16 -14 0 -20 77 -171 96 -187 13 -11 14 -9 8 17 -4 16 -22 68 -41
116 -38 101 -41 124 -10 85 l23 -27 98 40 c54 22 100 40 103 40 3 0 -14 -16
-37 -35 -23 -19 -39 -35 -36 -35 16 0 89 43 121 71 58 51 54 23 -6 -38 -58
-61 -55 -60 30 6 38 30 57 39 65 31 7 -7 -4 -24 -39 -56 -28 -25 -39 -40 -27
-34 32 16 37 7 15 -26 -16 -25 -12 -24 39 15 62 46 97 48 56 2 -13 -14 -32
-37 -43 -50 -20 -23 -19 -23 24 3 23 15 52 29 63 31 12 3 28 11 38 20 38 35
41 9 3 -36 -16 -18 -22 -30 -15 -25 8 4 12 1 12 -9 0 -13 12 -7 48 22 90 74
87 73 58 15 -22 -44 -35 -56 -86 -82 -72 -36 -130 -87 -172 -149 -17 -25 -45
-61 -61 -78 -17 -18 -28 -35 -25 -39 4 -3 0 -24 -8 -46 -20 -56 -18 -58 17
-15 17 20 37 37 45 37 8 0 12 -4 9 -10 -3 -5 -4 -10 -2 -10 2 0 18 23 36 51
23 38 35 49 43 41 8 -8 5 -25 -10 -62 -28 -66 -7 -62 30 6 19 33 28 42 28 29
1 -17 3 -16 16 8 19 36 25 34 18 -5 l-5 -33 18 33 c9 18 23 30 29 28 8 -3 20
18 34 60 12 36 33 77 46 92 23 27 23 26 -6 -68 -35 -113 -35 -114 -9 -72 21
32 39 42 39 20 0 -7 15 2 33 20 38 37 47 39 47 12 0 -21 15 -27 25 -10 3 6 13
10 21 10 32 0 6 -31 -80 -92 -61 -44 -92 -73 -97 -91 -4 -14 -23 -40 -43 -57
-20 -18 -36 -37 -36 -44 0 -6 -20 -38 -45 -71 -47 -63 -52 -70 -34 -60 6 4 -2
-16 -16 -45 -14 -29 -22 -49 -16 -45 14 8 14 4 -3 -36 -7 -19 -17 -45 -21 -59
-7 -22 -6 -23 9 -11 14 12 16 11 16 -4 0 -17 1 -17 20 0 15 14 20 15 20 4 0
-8 14 11 32 41 17 30 35 56 39 58 5 2 12 20 15 40 l7 37 13 -30 13 -30 1 32
c0 43 19 52 26 13 10 -47 24 -46 24 2 0 48 17 84 27 58 4 -9 10 0 18 25 8 29
16 39 28 37 10 -2 17 4 17 13 0 8 5 15 10 15 6 0 10 -19 11 -42 l1 -43 13 58
c15 69 21 78 34 46 8 -20 10 -15 11 31 0 65 9 102 21 94 5 -3 9 -22 9 -42 0
-67 16 -67 30 0 12 52 15 59 21 38 13 -47 9 -130 -7 -163 -9 -18 -34 -58 -56
-89 -55 -82 -148 -273 -201 -413 -25 -66 -118 -346 -206 -623 -89 -276 -183
-553 -208 -615 -25 -61 -59 -146 -74 -187 -15 -41 -28 -68 -29 -60 0 12 -2 13
-9 1 -6 -9 -17 12 -36 70 -28 86 -74 185 -74 159 0 -8 11 -64 24 -124 13 -61
22 -114 19 -118 -10 -16 -27 -7 -61 30 -19 20 -32 29 -29 20 4 -13 -11 -26
-61 -53 -36 -20 -67 -34 -69 -32 -2 2 18 35 44 73 26 38 55 90 64 117 17 46
17 47 -2 37 -23 -12 -122 -128 -156 -182 -28 -44 -41 -48 -50 -13 -4 18 4 49
29 103 44 96 63 170 77 292 6 52 13 104 16 115 l5 20 -16 -20 c-46 -56 -115
-234 -130 -336 -8 -54 -19 -74 -34 -65 -7 4 -8 18 -4 34 5 23 4 25 -9 14 -13
-11 -22 5 -66 115 -28 71 -62 166 -76 213 -138 462 -185 1294 -106 1904 19
142 65 419 77 461 6 24 167 178 171 165 2 -5 -7 -28 -19 -52z m-275 -82 c-12
-71 -22 -106 -31 -106 -16 0 -17 50 -2 140 11 68 26 97 42 81 6 -6 2 -49 -9
-115z m6667 -4 c-31 -10 -111 63 -96 88 5 8 23 -4 56 -36 27 -27 45 -50 40
-52z m-5152 32 c-31 -34 -54 -45 -73 -38 -26 10 -18 20 32 42 63 27 70 27 41
-4z m15 -61 c-64 -38 -60 -37 -68 -18 -4 11 11 23 52 44 77 39 90 19 16 -26z
m-524 -19 l0 -66 -37 7 c-21 4 -40 9 -42 11 -9 8 23 95 38 104 35 20 41 12 41
-56z m4910 -46 c0 -100 18 -95 22 7 3 64 4 68 16 47 8 -13 16 -49 19 -80 l6
-57 11 45 c12 48 29 59 34 23 6 -45 22 -22 22 31 0 30 4 57 9 60 13 9 34 -80
28 -118 -3 -18 -1 -38 4 -43 7 -7 -7 -31 -40 -71 -52 -62 -91 -120 -91 -136 0
-4 16 4 36 19 19 15 38 24 42 20 6 -6 -66 -152 -80 -161 -12 -8 -79 38 -74 52
3 8 -8 17 -28 24 -25 8 -34 17 -33 33 0 12 -4 53 -8 91 -7 56 -6 68 6 64 7 -2
19 -24 26 -49 11 -39 11 -32 6 66 -4 87 -3 108 7 98 7 -6 15 -32 17 -57 8 -69
25 -68 23 0 -3 116 0 174 10 174 6 0 10 -34 10 -82z m-5900 -73 c0 -27 -18
-149 -39 -270 -69 -385 -94 -676 -94 -1095 0 -373 28 -691 89 -1002 21 -109
84 -322 118 -400 18 -40 -16 -14 -58 45 -379 532 -617 1182 -681 1857 l-16
166 30 84 c16 47 37 103 47 125 15 35 18 38 25 20 4 -11 8 -49 8 -84 1 -40 5
-61 10 -55 5 5 28 79 51 164 22 85 43 156 45 159 3 2 5 -29 5 -70 1 -89 8 -79
45 64 18 70 32 107 41 107 18 0 18 10 -12 -148 -14 -73 -23 -136 -21 -139 8
-7 68 168 100 292 16 66 34 125 40 130 5 6 8 -32 5 -102 -2 -62 0 -109 3 -105
10 11 38 155 45 233 11 114 28 83 21 -38 -3 -60 -3 -116 2 -127 7 -17 8 -17
23 -2 9 9 22 41 28 71 12 59 21 67 36 34 8 -17 15 -6 48 71 42 100 56 103 56
15z m1620 50 l-24 -26 42 7 c44 7 57 -6 25 -25 -15 -9 -13 -11 16 -17 29 -6
31 -8 15 -17 -17 -10 -17 -11 0 -17 9 -3 17 -10 16 -14 -1 -5 10 -16 25 -26
21 -14 23 -18 11 -23 -9 -4 -25 -3 -35 1 -21 7 -179 143 -180 154 -1 7 63 25
93 27 18 1 17 -1 -4 -24z m4801 -76 c12 -31 8 -46 -10 -34 -21 12 -72 95 -65
106 8 14 59 -34 75 -72z m-29 -48 c55 -52 61 -66 87 -226 57 -342 75 -593 68
-930 -10 -451 -60 -838 -142 -1080 -33 -99 -88 -224 -96 -219 -5 3 -9 -4 -9
-15 0 -29 -19 -36 -24 -9 -21 100 -32 143 -56 208 -15 41 -36 90 -48 109 l-21
35 6 -60 c10 -109 41 -244 72 -311 20 -43 29 -73 25 -89 -9 -34 -19 -30 -55
24 -43 63 -120 154 -126 148 -10 -10 23 -83 64 -143 23 -35 40 -63 36 -63 -20
0 -113 64 -113 78 0 12 -8 7 -26 -15 -28 -36 -54 -43 -54 -15 1 9 9 57 20 107
10 49 17 92 14 94 -6 6 -43 -86 -61 -151 -9 -32 -22 -58 -29 -58 -7 0 -18 17
-24 38 -7 20 -34 93 -60 162 -27 69 -90 260 -140 425 -218 716 -272 864 -384
1049 -57 94 -62 114 -57 216 l3 45 16 -60 17 -60 5 45 c7 61 24 57 28 -7 2
-39 6 -51 17 -47 9 4 16 -7 23 -38 8 -33 10 -37 11 -15 1 27 21 39 21 12 0 -8
6 -12 14 -9 11 4 17 -5 22 -31 4 -25 9 -33 15 -24 11 18 14 12 26 -41 8 -34
11 -38 12 -17 1 33 18 35 31 5 9 -23 9 -23 10 2 2 24 2 24 10 -4 15 -48 64
-136 75 -133 6 2 15 -3 22 -12 11 -14 12 -14 13 4 0 17 2 17 10 5 15 -23 12 3
-4 47 -8 21 -14 45 -14 53 -1 45 -82 189 -131 235 -12 10 -21 26 -21 36 0 11
-32 43 -80 79 -44 33 -80 67 -80 75 0 17 16 20 25 5 9 -15 25 -12 25 5 0 22
10 19 42 -12 15 -15 28 -21 28 -15 0 20 18 13 25 -9 4 -11 9 -18 12 -16 2 3
-5 36 -16 73 -11 37 -18 70 -16 72 7 8 43 -59 55 -104 7 -24 18 -44 25 -44 6
0 17 -10 23 -22 l11 -23 1 25 1 25 14 -25 c9 -16 15 -19 15 -10 1 8 12 -7 26
-33 30 -58 43 -55 20 4 -23 57 -6 74 26 25 12 -19 29 -35 35 -33 7 1 25 -11
39 -28 25 -29 25 -29 19 -5 -4 14 -8 32 -9 42 -1 9 -17 36 -34 60 -18 23 -47
63 -65 87 -19 25 -61 61 -101 85 -49 30 -74 53 -88 80 -11 21 -18 40 -16 42 2
2 24 -14 48 -36 25 -22 48 -39 52 -40 10 0 1 40 -13 56 -21 25 0 28 26 4 16
-15 25 -19 25 -10 0 10 4 10 18 -2 9 -9 28 -21 42 -28 22 -11 20 -8 -9 24 -48
49 -30 69 24 26 42 -33 54 -38 34 -13 -12 13 -12 17 -1 21 10 3 4 14 -18 37
-46 48 -19 55 37 9 45 -37 48 -20 4 20 -36 33 -23 39 17 8 38 -30 75 -52 88
-52 4 0 -5 10 -20 21 -43 34 -24 32 60 -6 l78 -36 23 28 23 28 -6 -30 c-4 -16
-15 -50 -24 -75 -10 -25 -23 -63 -28 -85 l-11 -40 19 23 c10 12 31 54 47 92
15 38 34 70 41 70 17 0 15 -21 -8 -126 -11 -49 -20 -100 -20 -114 0 -24 1 -24
20 8 11 17 22 32 25 32 3 0 3 -56 -1 -125 -4 -69 -4 -125 -1 -125 4 0 14 25
22 55 32 108 43 53 25 -125 -4 -47 -6 -87 -5 -88 2 -2 16 20 32 50 l28 53 5
-56 c5 -54 68 -229 82 -229 4 0 5 51 2 113 l-5 112 26 -60 25 -60 -4 75 c-3
49 -17 113 -40 186 -20 61 -36 117 -36 125 1 8 16 -4 35 -26 l35 -40 -26 64
c-19 47 -22 67 -14 75 8 8 27 -6 71 -54 45 -48 58 -59 53 -40 -13 47 -53 130
-79 164 -32 42 -17 56 27 25 35 -25 32 -17 -24 57 -21 28 -38 54 -38 59 0 10
47 -20 84 -54 16 -14 27 -21 24 -16 -3 6 -32 53 -63 105 -31 52 -59 100 -62
105 -7 14 114 -111 160 -165 l38 -45 -42 80 c-24 44 -50 92 -58 107 -27 47 -2
43 51 -8 58 -55 51 -39 -32 76 -98 136 -98 151 -1 50 l91 -95 -43 70 c-46 72
-87 149 -87 161 0 9 29 -15 92 -75z m187 9 c14 -63 14 -150 1 -150 -10 0 -14
12 -30 104 -13 79 -13 96 4 96 9 0 18 -19 25 -50z m-4929 -35 c84 -42 197
-122 186 -132 -8 -8 -225 113 -276 153 -56 45 -31 39 90 -21z m3705 -25 c-11
-18 -41 -10 -68 18 -39 41 -33 46 23 17 28 -14 48 -30 45 -35z m-70 -2 c41
-20 61 -48 34 -48 -19 0 -99 52 -93 61 7 12 7 12 59 -13z m457 10 c15 -12 42
-87 34 -95 -1 -1 -17 -6 -34 -9 l-32 -6 0 61 c0 63 5 70 32 49z m-6328 -26 c3
-5 -15 -28 -39 -52 -44 -43 -45 -44 -45 -18 0 18 11 35 33 52 34 28 43 31 51
18z m5829 -81 c16 -6 9 -16 -43 -65 -79 -72 -106 -90 -127 -82 -15 6 -14 8 5
22 12 8 22 22 22 30 0 8 6 14 13 14 8 0 7 4 -3 10 -12 7 -8 10 14 10 28 0 28
1 13 18 -22 24 -12 33 27 25 l31 -6 -20 23 -20 22 35 -7 c19 -4 43 -11 53 -14z
m-3292 -21 c37 -20 21 -32 -33 -25 -61 8 -68 12 -48 25 20 13 57 12 81 0z
m2817 -14 c11 -12 -12 -26 -42 -26 -31 0 -56 15 -56 33 0 9 88 2 98 -7z
m-5375 -8 c-4 -7 -22 -37 -40 -67 -31 -51 -33 -53 -33 -26 0 20 12 41 37 67
38 39 50 47 36 26z m2277 -43 c0 -21 -9 -30 -42 -45 -64 -29 -73 -25 -41 18
15 20 29 39 31 42 2 2 7 -1 11 -8 6 -10 11 -10 21 3 17 21 20 19 20 -10z
m3591 -9 c-19 -23 -142 -101 -211 -135 l-65 -32 50 46 c28 26 91 66 140 91
100 49 102 50 86 30z m-646 -50 c-17 -25 -51 -43 -63 -32 -3 4 10 22 28 41 38
39 62 33 35 -9z m-5328 -73 c-4 -43 -10 -91 -13 -107 -4 -18 -3 -27 3 -23 6 4
12 -49 16 -146 26 -652 244 -1326 614 -1901 39 -59 57 -96 47 -92 -9 4 9 -22
40 -58 31 -35 56 -66 56 -69 0 -3 -18 2 -40 11 -38 16 -52 32 -28 32 6 0 3 9
-7 20 -10 11 -24 20 -30 20 -25 0 -190 270 -303 495 -256 514 -388 1042 -409
1644 l-6 192 28 29 c16 17 31 30 33 30 3 0 2 -35 -1 -77z m78 -2 c-2 -9 -14
-50 -24 -91 l-20 -75 0 66 c-1 79 14 130 35 122 8 -3 12 -13 9 -22z m2255 -55
c0 -39 -6 -60 -21 -80 -12 -15 -23 -25 -25 -23 -8 7 29 157 38 157 4 0 8 -24
8 -54z m3343 12 l22 -12 -25 -7 c-14 -4 -38 -7 -55 -8 l-30 0 24 19 c27 23 35
24 64 8z m211 -52 c6 2 21 -12 34 -31 26 -40 26 -40 -28 -19 -32 13 -40 21
-40 42 0 19 3 23 11 15 6 -6 17 -10 23 -7z m35 -183 c16 -81 14 -93 -9 -64
-14 16 -20 38 -20 72 0 66 15 62 29 -8z m-2071 -1538 c75 -34 124 -83 159
-159 25 -55 28 -72 28 -166 0 -95 -3 -111 -29 -168 -34 -73 -86 -124 -165
-160 -80 -37 -202 -37 -282 0 -72 33 -134 94 -168 167 -23 49 -26 68 -26 161
0 92 3 112 26 160 47 101 122 163 226 190 62 15 167 4 231 -25z m720 5 c78
-35 125 -92 150 -182 l10 -36 -70 -17 c-38 -10 -70 -16 -72 -14 -1 2 -9 22
-17 43 -26 72 -102 104 -199 85 -115 -23 -176 -149 -139 -284 26 -92 87 -135
193 -135 42 0 80 7 110 20 42 18 46 22 46 55 l0 35 -95 0 -95 0 0 70 0 70 170
0 170 0 0 -142 0 -143 -33 -22 c-221 -149 -491 -106 -592 93 -28 55 -30 67
-30 169 0 100 3 116 28 170 47 100 111 153 222 182 67 17 184 9 243 -17z m831
-7 c70 -35 109 -88 117 -160 l7 -51 -45 -7 c-78 -12 -101 -5 -109 34 -9 45
-28 62 -80 71 -66 12 -118 0 -142 -33 -19 -25 -20 -28 -5 -43 9 -9 74 -32 145
-51 148 -39 197 -67 231 -133 42 -83 20 -176 -57 -242 -52 -44 -115 -63 -206
-62 -91 1 -144 17 -197 57 -55 42 -88 102 -95 172 l-6 56 73 -3 73 -3 11 -44
c16 -65 49 -85 144 -89 67 -3 81 -1 105 18 31 25 35 59 9 83 -10 9 -67 30
-128 46 -136 36 -152 43 -192 76 -91 76 -86 210 9 287 79 63 234 73 338 21z
m-2242 -3 c108 -46 163 -140 171 -291 9 -175 -50 -296 -170 -350 -48 -21 -70
-24 -240 -27 l-188 -4 0 344 c0 190 3 348 8 353 4 4 88 5 187 3 158 -5 186 -8
232 -28z m1763 -57 c0 -70 -4 -95 -20 -121 -17 -27 -73 -72 -90 -72 -3 0 -17
19 -32 43 l-27 42 24 13 c28 14 33 32 10 32 -12 0 -15 15 -15 75 l0 75 75 0
75 0 0 -87z m1768 -370 c3 -21 -32 -72 -43 -61 -3 3 -1 25 6 47 13 43 32 50
37 14z m-5266 -68 c15 -41 16 -45 1 -45 -30 0 -57 63 -36 83 13 13 19 7 35
-38z m-847 -45 c-3 -5 -21 -10 -38 -10 -41 0 -21 -15 41 -31 23 -6 42 -15 42
-20 0 -13 -46 -1 -110 28 -51 24 -53 26 -30 33 38 12 102 12 95 0z m211 -61
c3 -5 -9 -9 -25 -9 -17 0 -31 4 -31 9 0 5 11 9 25 9 14 0 28 -4 31 -9z m6484
-88 c0 -13 -165 -205 -276 -321 -223 -232 -552 -488 -858 -669 -224 -132 -580
-291 -831 -371 -841 -268 -1778 -259 -2610 24 -527 179 -984 443 -1405 812
-154 134 -430 422 -430 448 0 3 9 6 20 6 12 0 87 -69 200 -182 201 -203 293
-284 505 -444 94 -71 234 -164 247 -164 5 0 8 7 6 16 -2 11 11 22 42 34 l45
18 0 151 c0 83 -4 151 -9 151 -5 0 -4 6 2 13 10 12 10 131 -1 157 -3 8 -7 24
-9 35 -2 14 -13 21 -38 25 -26 4 -34 10 -32 22 1 9 -2 19 -8 23 -24 15 -7 24
36 18 34 -4 48 -2 55 8 6 10 9 10 9 2 0 -9 21 -13 70 -13 60 0 70 3 71 18 1
16 2 16 6 0 4 -15 16 -18 76 -18 97 0 144 -15 189 -60 41 -41 43 -51 39 -167
-2 -72 -100 -140 -232 -163 l-66 -12 -6 -57 c-2 -32 -3 -79 0 -104 l6 -46 46
-7 c54 -8 72 -19 64 -41 -5 -12 -16 -14 -56 -9 -31 3 -56 1 -64 -5 -9 -8 -13
-8 -13 -1 0 6 -6 10 -12 7 -7 -2 -51 -6 -97 -9 -46 -3 -85 -7 -87 -9 -2 -2 60
-40 138 -85 477 -271 986 -438 1548 -507 175 -22 610 -31 795 -16 536 42 1042
180 1505 410 120 59 301 159 335 184 18 14 17 15 -20 26 -47 13 -155 15 -155
2 0 -4 -23 -4 -52 2 -31 6 -53 7 -55 1 -2 -5 -33 -7 -69 -6 -48 3 -69 0 -75
-10 -6 -9 -11 -10 -16 -2 -5 6 -26 9 -48 8 -47 -2 -58 3 -48 19 8 12 9 17 12
38 0 5 6 7 12 4 5 -4 24 -1 40 6 l31 12 -6 261 c-2 144 -5 262 -5 262 -4 8
-62 24 -70 19 -7 -4 -11 5 -12 22 -1 25 -2 24 -8 -8 -4 -20 -6 -72 -5 -116 1
-44 -2 -86 -7 -94 -6 -10 -9 -10 -9 -1 0 6 -11 12 -24 12 -30 0 -36 8 -40 60
-3 34 -12 49 -50 86 -38 36 -54 44 -84 44 -60 0 -82 -22 -82 -80 0 -59 21 -84
91 -104 82 -25 184 -100 215 -158 18 -35 18 -77 -2 -143 -28 -99 -84 -140
-201 -151 -55 -5 -80 -2 -130 15 -74 25 -111 16 -120 -31 -6 -32 -23 -28 -23
6 0 18 -5 22 -27 20 -16 -1 -38 -2 -50 -3 -14 0 -23 -8 -24 -18 -1 -17 -2 -17
-6 0 -6 24 -120 25 -130 1 -5 -13 -7 -14 -14 -2 -5 9 -23 13 -54 12 -43 -2
-46 0 -41 20 3 11 6 27 6 34 0 7 13 12 29 12 55 0 56 4 56 284 0 243 -2 259
-20 272 -10 8 -29 14 -41 14 -29 0 -35 10 -25 45 4 19 10 25 15 17 11 -18 66
-15 66 3 0 8 4 15 9 15 5 0 11 -7 15 -15 4 -12 26 -15 104 -15 54 0 102 4 108
9 5 6 14 4 22 -5 9 -10 9 -14 1 -14 -6 0 -9 -8 -7 -18 4 -15 -4 -21 -38 -30
l-44 -12 -1 -137 c-1 -76 -2 -192 -3 -257 -1 -87 3 -123 12 -133 21 -20 51
-35 61 -28 5 3 12 -5 14 -17 2 -13 2 27 0 87 -3 61 -9 111 -13 113 -5 2 -2 12
7 22 9 10 23 16 31 12 11 -4 13 -2 7 9 -8 12 -6 12 8 0 9 -7 17 -20 17 -28 0
-24 48 -110 83 -148 56 -61 140 -66 186 -12 17 21 27 87 13 87 -6 0 -9 6 -6
13 3 8 -3 20 -12 28 -16 12 -17 12 -9 -1 4 -8 -3 -5 -16 6 -32 29 -63 44 -88
44 -12 0 -21 7 -21 15 0 8 -8 16 -17 17 -10 0 -23 2 -30 2 -12 1 -58 41 -85
74 -25 31 -39 95 -32 144 8 50 62 138 84 138 9 0 27 8 40 17 35 25 133 21 200
-8 38 -16 54 -19 63 -10 8 8 7 11 -3 11 -12 0 -12 3 1 15 12 13 21 14 44 5 22
-8 30 -8 37 2 8 10 11 10 15 1 8 -21 63 -16 64 5 1 15 2 15 6 -1 5 -18 17 -18
205 -13 161 4 204 8 217 21 25 22 30 19 25 -17 -10 -70 -7 -150 5 -158 9 -5 8
-9 -4 -14 -32 -12 -50 -6 -63 22 -6 15 -24 42 -38 60 -26 31 -29 32 -106 32
l-79 0 2 -120 c1 -103 3 -120 18 -121 73 -7 105 16 116 82 6 36 25 65 25 39 0
-7 8 -9 19 -5 19 6 20 1 17 -137 -5 -197 -2 -181 -29 -155 -13 12 -27 33 -30
47 -12 49 -31 64 -83 64 l-49 1 0 -118 c0 -146 1 -147 107 -135 40 5 83 15 94
23 12 8 36 43 53 78 19 40 39 67 51 70 23 6 23 -2 12 -154 l-7 -86 55 34 c276
175 589 446 828 716 52 59 101 107 108 107 8 0 14 7 14 15 0 9 9 15 25 15 14
0 25 -4 25 -9z m-6430 -28 c0 -25 0 -26 -20 -8 -11 10 -20 22 -20 27 0 4 9 8
20 8 15 0 20 -7 20 -27z m2432 -166 c90 -6 106 -10 157 -40 54 -32 56 -35 65
-87 12 -79 -3 -118 -71 -180 l-56 -51 29 -38 c82 -109 153 -198 168 -210 20
-17 61 -7 71 16 16 40 177 510 182 533 7 32 22 41 52 33 17 -4 28 0 38 13 14
19 14 19 26 -1 6 -11 21 -49 33 -85 12 -36 36 -101 54 -145 17 -44 36 -97 41
-118 19 -78 82 -233 102 -250 20 -18 21 -18 31 5 8 19 10 20 13 6 5 -21 36
-24 51 -5 6 7 7 18 3 25 -4 7 -5 29 -2 48 3 20 3 84 0 142 -3 59 -2 120 3 136
4 16 4 34 1 40 -4 6 -8 41 -9 79 0 37 -4 70 -8 74 -4 4 -22 7 -41 7 -30 0 -35
3 -35 23 0 13 -5 23 -12 23 -6 0 -3 6 8 14 10 8 21 10 22 5 4 -10 154 -12 190
-3 12 4 22 13 22 20 0 8 5 14 10 14 6 0 10 -6 10 -14 0 -10 25 -15 95 -19 113
-6 164 -27 223 -92 72 -77 86 -115 87 -235 0 -93 -3 -111 -25 -154 -14 -27
-47 -73 -73 -102 -39 -43 -60 -56 -112 -73 -36 -12 -91 -21 -125 -21 -41 0
-60 -4 -60 -12 0 -10 -2 -10 -8 -2 -9 14 -112 22 -130 10 -8 -5 -18 -4 -25 3
-14 14 -30 15 -22 1 3 -5 -2 -10 -12 -10 -113 -3 -366 0 -371 4 -3 3 4 6 16 6
16 0 22 6 22 21 0 15 5 19 18 15 10 -4 26 0 35 6 15 12 15 18 -5 86 l-21 72
-77 0 c-46 0 -83 -5 -92 -12 -9 -7 -25 -40 -36 -73 l-20 -60 27 -12 c14 -7 34
-10 43 -7 23 7 40 -26 25 -46 -11 -14 -61 -16 -260 -10 -5 0 -5 5 -2 10 4 6
-20 10 -65 10 -54 0 -69 -3 -64 -12 6 -10 4 -10 -7 0 -7 6 -22 12 -34 12 -16
0 -17 2 -5 10 12 7 9 16 -18 52 -18 24 -50 73 -73 110 -42 69 -65 95 -75 85
-8 -8 6 -180 15 -196 5 -7 14 -13 22 -14 23 -4 40 -18 34 -28 -4 -5 -1 -9 5
-9 7 0 7 -4 -1 -12 -8 -9 -42 -12 -116 -10 l-105 3 7 -30 c4 -20 3 -31 -4 -31
-6 0 -11 13 -11 28 l0 28 -191 2 c-105 0 -194 4 -197 7 -3 3 2 5 11 5 10 0 17
8 17 19 0 22 16 37 22 21 4 -12 48 -1 48 13 0 5 -9 41 -20 78 l-21 69 -79 0
c-92 0 -98 -4 -125 -84 -22 -63 -16 -77 33 -81 17 -1 37 -9 46 -17 36 -37 -31
-46 -269 -38 -5 0 -4 4 3 9 7 4 12 12 11 17 -4 24 3 34 25 34 13 0 33 8 44 18
20 17 80 170 122 311 12 40 37 114 56 164 19 49 32 92 29 95 -2 3 3 11 12 17
13 10 22 10 36 1 14 -9 21 -8 31 6 7 9 17 13 23 10 12 -8 52 -112 128 -332 64
-188 94 -263 108 -272 15 -10 70 1 79 16 8 11 1 415 -8 473 -5 35 -27 53 -59
50 -22 -2 -29 31 -14 68 4 11 8 14 8 8 1 -8 15 -13 37 -13 26 0 35 4 31 13 -3
8 -1 20 4 28 6 10 9 6 9 -14 l0 -28 63 4 c45 2 61 7 59 17 -2 7 0 20 4 29 6
12 9 10 11 -10 4 -26 6 -26 105 -32z m105 -683 c-3 -3 -12 -4 -19 -1 -8 3 -5
6 6 6 11 1 17 -2 13 -5z"/>
<path d="M1999 4563 c-13 -16 -12 -17 4 -4 9 7 17 15 17 17 0 8 -8 3 -21 -13z"/>
<path d="M2070 3422 c-13 -15 -53 -58 -88 -97 -261 -283 -491 -704 -558 -1018
-21 -100 -20 -103 25 -65 34 28 39 37 34 63 -6 30 -6 30 14 12 24 -21 75 -115
93 -169 9 -29 17 -38 34 -38 20 0 30 19 84 153 33 83 124 350 202 592 77 242
152 473 166 513 14 41 24 76 21 78 -2 2 -14 -8 -27 -24z"/>
<path d="M1467 2193 c-26 -72 -23 -83 19 -83 36 0 36 1 30 33 -4 17 -10 47
-13 65 -3 17 -9 32 -12 32 -4 0 -15 -21 -24 -47z"/>
<path d="M6385 3404 c24 -66 66 -193 94 -284 223 -733 212 -699 288 -896 43
-112 48 -114 82 -25 37 98 100 188 87 125 -5 -26 4 -39 80 -118 46 -49 86 -87
88 -85 2 2 -9 42 -25 89 -15 47 -35 137 -43 200 -18 137 -37 196 -116 355
-113 230 -293 476 -488 669 l-90 88 43 -118z"/>
<path d="M6912 2205 c-13 -65 -5 -88 26 -69 24 15 25 42 4 89 l-18 40 -12 -60z"/>
<path d="M3837 2350 c-77 -14 -122 -67 -138 -159 -28 -154 47 -263 180 -263
68 0 110 19 145 64 63 84 57 232 -13 312 -35 40 -107 59 -174 46z"/>
<path d="M3063 2138 l2 -203 60 -3 c93 -5 160 13 190 52 48 63 58 201 19 281
-28 60 -63 75 -176 75 l-97 0 2 -202z"/>
<path d="M5588 1563 c7 -3 16 -2 19 1 4 3 -2 6 -13 5 -11 0 -14 -3 -6 -6z"/>
<path d="M6200 1550 l-75 -6 78 -2 c46 -1 77 2 77 8 0 6 -1 9 -2 8 -2 -1 -37
-4 -78 -8z"/>
<path d="M5055 1540 c-3 -5 3 -10 14 -10 11 0 23 5 26 10 3 6 -3 10 -14 10
-11 0 -23 -4 -26 -10z"/>
<path d="M5117 1539 c8 -8 27 -8 64 -1 l54 10 -64 1 c-47 1 -62 -2 -54 -10z"/>
<path d="M5285 1540 c-3 -5 -2 -10 4 -10 5 0 13 5 16 10 3 6 2 10 -4 10 -5 0
-13 -4 -16 -10z"/>
<path d="M6008 1543 c12 -2 30 -2 40 0 9 3 -1 5 -23 4 -22 0 -30 -2 -17 -4z"/>
<path d="M2078 1533 c7 -3 16 -2 19 1 4 3 -2 6 -13 5 -11 0 -14 -3 -6 -6z"/>
<path d="M5660 1528 c0 -12 38 -10 45 2 4 6 -5 9 -19 8 -15 -1 -26 -6 -26 -10z"/>
<path d="M2144 1504 c3 -9 6 -18 6 -20 0 -2 21 -4 48 -3 46 1 46 1 15 10 -18
5 -33 14 -33 19 0 6 -9 10 -21 10 -15 0 -19 -4 -15 -16z"/>
<path d="M2258 1423 c-2 -54 -1 -118 1 -142 3 -42 4 -43 35 -37 17 4 46 22 65
41 30 30 35 42 39 94 7 97 -31 140 -125 141 -8 0 -13 -31 -15 -97z"/>
<path d="M2413 1513 c9 -2 23 -2 30 0 6 3 -1 5 -18 5 -16 0 -22 -2 -12 -5z"/>
<path d="M5140 1510 c19 -4 28 -8 20 -9 -10 -2 -8 -6 7 -13 27 -13 73 -2 73
17 0 12 -14 15 -67 14 -56 -1 -62 -3 -33 -9z m67 -16 c-3 -3 -12 -4 -19 -1 -8
3 -5 6 6 6 11 1 17 -2 13 -5z"/>
<path d="M5458 1513 c7 -3 16 -2 19 1 4 3 -2 6 -13 5 -11 0 -14 -3 -6 -6z"/>
<path d="M5948 1503 c6 -2 18 -2 25 0 6 3 1 5 -13 5 -14 0 -19 -2 -12 -5z"/>
<path d="M6004 1501 c7 -10 31 -9 42 2 4 4 -5 7 -20 7 -15 0 -25 -4 -22 -9z"/>
<path d="M5428 1493 c6 -2 18 -2 25 0 6 3 1 5 -13 5 -14 0 -19 -2 -12 -5z"/>
<path d="M5955 1480 c-14 -6 -15 -9 -5 -9 19 -1 21 -41 3 -41 -25 0 -13 -29
15 -33 l27 -4 -27 -2 c-21 -1 -28 -6 -28 -21 0 -18 7 -20 60 -20 58 0 60 1 50
21 -6 11 -10 32 -8 47 3 23 -2 28 -27 33 -28 6 -28 7 10 8 l40 2 -34 14 c-37
17 -47 17 -76 5z"/>
<path d="M5143 1468 c-2 -5 3 -8 11 -8 28 0 17 -20 -11 -21 l-28 -1 25 -8 c25
-8 25 -8 -5 -10 -27 -3 -27 -3 10 -10 l40 -7 -35 -2 c-19 -2 -29 -5 -22 -8 10
-4 9 -8 -4 -17 -15 -11 -11 -14 27 -21 44 -8 44 -8 13 -15 -47 -11 -57 -19
-43 -36 8 -10 8 -14 0 -14 -24 0 -4 -26 29 -36 25 -9 29 -12 14 -13 -12 -1
-27 -7 -33 -15 -10 -11 -8 -16 8 -21 12 -3 26 -3 32 1 8 4 9 3 5 -4 -4 -7 -19
-13 -34 -14 -17 0 -11 -4 18 -8 l45 -7 -41 -1 c-27 -1 -44 -7 -48 -17 -4 -10
1 -15 15 -15 11 0 17 5 14 10 -3 6 -1 10 4 10 6 0 11 -4 11 -10 0 -5 8 -11 18
-12 9 0 -3 -4 -28 -7 l-45 -6 60 -10 61 -10 2 61 c2 58 1 62 -18 57 -28 -7
-26 15 3 27 20 8 20 9 2 10 -19 1 -19 1 -2 14 15 11 18 26 16 80 -1 40 -7 66
-13 66 -8 0 -8 3 -1 8 6 4 12 16 12 27 1 17 -5 20 -39 20 -22 0 -42 -3 -45 -7z
m44 -84 c-3 -3 -12 -4 -19 -1 -8 3 -5 6 6 6 11 1 17 -2 13 -5z"/>
<path d="M2133 1463 c9 -2 25 -2 35 0 9 3 1 5 -18 5 -19 0 -27 -2 -17 -5z"/>
<path d="M5750 1460 c-22 -6 -23 -8 -7 -15 20 -8 47 0 47 15 0 11 -4 11 -40 0z"/>
<path d="M6318 1463 c7 -3 16 -2 19 1 4 3 -2 6 -13 5 -11 0 -14 -3 -6 -6z"/>
<path d="M2465 1440 c-3 -6 1 -7 9 -4 18 7 21 14 7 14 -6 0 -13 -4 -16 -10z"/>
<path d="M5423 1443 c9 -2 23 -2 30 0 6 3 -1 5 -18 5 -16 0 -22 -2 -12 -5z"/>
<path d="M2480 1420 c0 -6 7 -10 15 -10 8 0 15 2 15 4 0 2 -7 6 -15 10 -8 3
-15 1 -15 -4z"/>
<path d="M5400 1420 c9 -4 31 -5 50 0 34 8 33 8 -15 9 -34 0 -45 -3 -35 -9z"/>
<path d="M2190 1411 c0 -5 7 -12 16 -15 14 -5 15 -4 4 9 -14 17 -20 19 -20 6z"/>
<path d="M5768 1393 c7 -3 16 -2 19 1 4 3 -2 6 -13 5 -11 0 -14 -3 -6 -6z"/>
<path d="M2135 1380 c-3 -6 4 -10 17 -11 22 0 22 -1 3 -9 -15 -7 -9 -9 25 -9
33 -1 41 2 30 9 -8 5 -10 10 -5 10 6 0 3 5 -5 10 -20 13 -57 13 -65 0z"/>
<path d="M2416 1381 c-3 -5 4 -9 17 -9 12 0 42 -3 67 -7 43 -6 44 -6 20 9 -27
17 -96 21 -104 7z"/>
<path d="M5388 1373 c6 -2 18 -2 25 0 6 3 1 5 -13 5 -14 0 -19 -2 -12 -5z"/>
<path d="M2418 1353 c6 -2 18 -2 25 0 6 3 1 5 -13 5 -14 0 -19 -2 -12 -5z"/>
<path d="M5398 1353 c12 -2 32 -2 45 0 12 2 2 4 -23 4 -25 0 -35 -2 -22 -4z"/>
<path d="M5478 1353 c7 -3 16 -2 19 1 4 3 -2 6 -13 5 -11 0 -14 -3 -6 -6z"/>
<path d="M2145 1330 c18 -8 18 -9 2 -9 -10 -1 -15 -5 -12 -11 3 -5 30 -10 58
-10 37 0 48 3 37 10 -8 5 -26 10 -40 11 -23 0 -23 1 -5 9 16 7 11 9 -20 9 -31
0 -36 -2 -20 -9z"/>
<path d="M2455 1330 c3 -5 11 -10 16 -10 6 0 7 5 4 10 -3 6 -11 10 -16 10 -6
0 -7 -4 -4 -10z"/>
<path d="M5965 1331 c3 -5 -3 -11 -12 -14 -10 -2 11 -4 47 -5 59 -1 63 0 46
13 -22 16 -91 21 -81 6z"/>
<path d="M2498 1323 c7 -3 16 -2 19 1 4 3 -2 6 -13 5 -11 0 -14 -3 -6 -6z"/>
<path d="M5548 1323 c6 -2 18 -2 25 0 6 3 1 5 -13 5 -14 0 -19 -2 -12 -5z"/>
<path d="M2418 1298 c14 -14 94 -17 99 -3 2 6 -20 11 -54 13 -43 1 -54 -1 -45
-10z"/>
<path d="M5565 1295 c-29 -14 -28 -14 35 -14 61 0 64 1 40 14 -30 17 -37 17
-75 0z"/>
<path d="M5423 1293 c15 -2 39 -2 55 0 15 2 2 4 -28 4 -30 0 -43 -2 -27 -4z"/>
<path d="M5945 1295 c24 -8 116 -12 103 -4 -7 5 -35 8 -63 8 -27 0 -45 -2 -40
-4z"/>
<path d="M2148 1273 c17 -2 47 -2 65 0 17 2 3 4 -33 4 -36 0 -50 -2 -32 -4z"/>
<path d="M5433 1273 c15 -2 37 -2 50 0 12 2 0 4 -28 4 -27 0 -38 -2 -22 -4z"/>
<path d="M5670 1260 c0 -5 10 -10 23 -10 18 0 19 2 7 10 -19 13 -30 13 -30 0z"/>
<path d="M2148 1253 c17 -2 47 -2 65 0 17 2 3 4 -33 4 -36 0 -50 -2 -32 -4z"/>
<path d="M5435 1250 c3 -5 17 -10 31 -10 14 0 22 4 19 10 -3 6 -17 10 -31 10
-14 0 -22 -4 -19 -10z"/>
<path d="M2438 1243 c6 -2 18 -2 25 0 6 3 1 5 -13 5 -14 0 -19 -2 -12 -5z"/>
<path d="M6005 1241 c-6 -5 -23 -11 -40 -14 -24 -3 -21 -4 13 -6 23 0 42 3 42
8 0 5 8 12 18 14 14 4 13 5 -3 6 -12 0 -25 -3 -30 -8z"/>
<path d="M2131 1228 c-1 -13 7 -16 34 -14 20 2 39 6 42 10 4 4 -9 5 -30 3 -21
-2 -38 1 -41 7 -2 6 -5 3 -5 -6z"/>
<path d="M5553 1233 c9 -2 23 -2 30 0 6 3 -1 5 -18 5 -16 0 -22 -2 -12 -5z"/>
<path d="M6015 1211 c-11 -5 -23 -7 -27 -4 -5 2 -8 -1 -8 -6 0 -6 6 -11 13
-11 6 0 22 -3 35 -6 18 -5 22 -2 22 15 0 23 -4 24 -35 12z"/>
<path d="M5740 1206 c0 -2 9 -6 20 -9 11 -3 18 -1 14 4 -5 9 -34 13 -34 5z"/>
<path d="M5940 1190 c0 -6 7 -13 15 -17 24 -9 27 1 5 15 -13 8 -20 8 -20 2z"/>
<path d="M2160 1180 c14 -4 34 -8 45 -8 16 0 15 2 -5 8 -14 4 -34 8 -45 8 -16
0 -15 -2 5 -8z"/>
<path d="M5968 1163 c-16 -2 -28 -9 -28 -15 0 -6 9 -8 19 -5 10 2 25 1 32 -4
10 -6 7 -9 -11 -10 l-25 -1 25 -8 25 -8 -27 -1 c-16 -1 -28 -5 -28 -10 0 -5
12 -12 28 -17 l27 -8 -35 -6 c-24 -5 -28 -8 -12 -9 13 0 21 -5 18 -10 -7 -10
17 -21 45 -21 21 0 26 16 7 23 -7 3 -2 6 12 6 17 1 21 4 12 10 -15 9 -18 38
-7 64 5 11 3 17 -6 18 -8 0 -5 4 6 9 16 7 13 8 -15 8 -19 -1 -47 -3 -62 -5z"/>
<path d="M2198 1143 c6 -2 18 -2 25 0 6 3 1 5 -13 5 -14 0 -19 -2 -12 -5z"/>
<path d="M5715 1130 c3 -6 27 -10 52 -10 58 0 49 11 -12 16 -28 2 -44 0 -40
-6z"/>
<path d="M2134 1123 c4 -5 11 -8 14 -9 4 0 15 -4 25 -9 10 -4 21 -5 24 -1 4 3
-2 6 -13 6 -16 0 -17 2 -4 10 11 7 7 10 -19 10 -19 0 -31 -3 -27 -7z"/>
<path d="M5140 1099 c-22 -6 -20 -7 12 -8 20 -1 39 -5 42 -10 4 -5 -2 -7 -11
-5 -10 2 -31 0 -48 -5 l-30 -9 28 -1 c32 -1 37 -21 5 -22 l-23 0 23 -9 c36
-15 81 -1 88 27 4 13 4 26 2 29 -12 12 -65 20 -88 13z"/>
<path d="M5738 1093 c7 -3 16 -2 19 1 4 3 -2 6 -13 5 -11 0 -14 -3 -6 -6z"/>
<path d="M2165 1050 c36 -6 37 -7 10 -9 -26 -2 -27 -4 -10 -11 18 -7 16 -8
-10 -12 l-30 -5 28 -2 c33 -1 75 34 50 43 -8 3 -29 5 -46 5 -30 -2 -29 -2 8
-9z"/>
<path d="M5735 1040 c-15 -7 -10 -9 23 -9 23 -1 42 4 42 9 0 12 -37 12 -65 0z"/>
<path d="M5380 1020 c0 -6 7 -10 15 -10 8 0 15 2 15 4 0 2 -7 6 -15 10 -8 3
-15 1 -15 -4z"/>
<path d="M6345 1020 c3 -5 -2 -10 -12 -11 -10 0 -13 -3 -5 -6 17 -7 15 -21 -5
-26 -10 -3 0 -5 22 -6 26 0 35 2 26 8 -9 6 -10 10 -2 12 16 6 3 39 -16 39 -8
0 -11 -4 -8 -10z"/>
<path d="M5117 1008 c2 -5 19 -8 36 -8 l32 -1 -30 -14 c-26 -12 -27 -13 -8
-14 12 -1 25 -6 29 -12 5 -9 -3 -10 -30 -5 -28 5 -36 4 -36 -8 0 -10 8 -14 28
-11 15 2 44 4 65 4 41 1 53 21 12 21 -14 0 -25 5 -25 10 0 6 12 10 26 10 14 0
23 4 19 10 -4 6 -12 8 -18 4 -7 -3 -5 0 4 8 14 11 7 13 -47 13 -34 0 -60 -3
-57 -7z"/>
<path d="M5725 1009 c4 -5 22 -9 42 -9 45 0 40 5 -10 13 -22 3 -35 2 -32 -4z"/>
<path d="M5998 1013 c7 -3 16 -2 19 1 4 3 -2 6 -13 5 -11 0 -14 -3 -6 -6z"/>
<path d="M2198 993 c7 -3 16 -2 19 1 4 3 -2 6 -13 5 -11 0 -14 -3 -6 -6z"/>
<path d="M5973 993 c15 -2 39 -2 55 0 15 2 2 4 -28 4 -30 0 -43 -2 -27 -4z"/>
<path d="M5371 986 c12 -10 59 -15 59 -6 0 5 -14 10 -32 10 -17 0 -29 -2 -27
-4z"/>
<path d="M2168 973 c12 -2 30 -2 40 0 9 3 -1 5 -23 4 -22 0 -30 -2 -17 -4z"/>
<path d="M5735 971 c-23 -5 -26 -8 -13 -13 9 -4 24 0 35 7 10 8 16 14 13 13
-3 0 -18 -3 -35 -7z"/>
<path d="M5995 971 c6 -11 45 -10 45 1 0 4 -12 8 -26 8 -14 0 -23 -4 -19 -9z"/>
<path d="M2158 953 c12 -2 30 -2 40 0 9 3 -1 5 -23 4 -22 0 -30 -2 -17 -4z"/>
<path d="M5368 953 c7 -3 16 -2 19 1 4 3 -2 6 -13 5 -11 0 -14 -3 -6 -6z"/>
<path d="M5260 946 c0 -2 7 -7 16 -10 8 -3 12 -2 9 4 -6 10 -25 14 -25 6z"/>
<path d="M5665 940 c-3 -5 1 -10 9 -10 9 0 16 5 16 10 0 6 -4 10 -9 10 -6 0
-13 -4 -16 -10z"/>
<path d="M5947 943 c-3 -5 22 -9 56 -11 33 -1 59 -1 56 1 -9 9 -108 17 -112
10z"/>
<path d="M6313 943 c9 -2 25 -2 35 0 9 3 1 5 -18 5 -19 0 -27 -2 -17 -5z"/>
<path d="M2208 933 c6 -2 18 -2 25 0 6 3 1 5 -13 5 -14 0 -19 -2 -12 -5z"/>
<path d="M2278 933 c7 -3 16 -2 19 1 4 3 -2 6 -13 5 -11 0 -14 -3 -6 -6z"/>
<path d="M5040 920 c-12 -8 -12 -10 5 -10 11 0 27 5 35 10 12 8 12 10 -5 10
-11 0 -27 -5 -35 -10z"/>
<path d="M5588 923 c6 -2 18 -2 25 0 6 3 1 5 -13 5 -14 0 -19 -2 -12 -5z"/>
<path d="M4618 1563 c12 -2 32 -2 45 0 12 2 2 4 -23 4 -25 0 -35 -2 -22 -4z"/>
<path d="M3360 1550 c0 -5 5 -10 11 -10 5 0 7 5 4 10 -3 6 -8 10 -11 10 -2 0
-4 -4 -4 -10z"/>
<path d="M3464 1548 c-3 -4 14 -8 37 -8 23 0 40 3 36 6 -9 9 -68 11 -73 2z"/>
<path d="M4733 1553 c15 -2 37 -2 50 0 12 2 0 4 -28 4 -27 0 -38 -2 -22 -4z"/>
<path d="M3413 1543 c9 -2 23 -2 30 0 6 3 -1 5 -18 5 -16 0 -22 -2 -12 -5z"/>
<path d="M4466 1525 c4 -8 14 -15 23 -15 13 0 14 2 2 9 -11 7 -9 10 10 14 19
3 18 5 -8 6 -25 1 -31 -2 -27 -14z"/>
<path d="M4609 1513 c-7 -80 5 -519 13 -524 6 -4 24 -3 40 1 19 6 26 5 22 -2
-9 -14 55 0 81 18 11 8 16 14 12 14 -5 0 1 13 12 29 12 16 21 39 21 50 0 12 3
21 8 21 22 0 21 244 -1 266 -4 4 -7 15 -7 23 0 22 -49 75 -86 94 -16 8 -48 17
-71 21 -37 5 -43 4 -44 -11z"/>
<path d="M4757 1519 c6 -6 30 -13 54 -15 31 -3 38 -2 24 5 -11 4 -23 7 -27 4
-5 -2 -8 1 -8 6 0 6 -12 11 -27 11 -19 0 -24 -3 -16 -11z"/>
<path d="M2865 1510 c3 -5 8 -10 11 -10 2 0 4 5 4 10 0 6 -5 10 -11 10 -5 0
-7 -4 -4 -10z"/>
<path d="M3360 1418 c0 -128 5 -148 35 -148 31 0 58 28 52 52 -4 15 -2 17 7 8
21 -17 33 9 35 75 2 72 -10 93 -64 105 -68 16 -65 20 -65 -92z"/>
<path d="M3480 1513 c0 -10 30 -33 44 -33 8 0 17 -4 20 -9 3 -5 17 -11 31 -13
13 -3 22 -1 19 3 -3 5 2 9 10 9 8 0 18 5 22 12 4 7 3 8 -4 4 -7 -4 -18 -4 -24
0 -9 6 -5 10 12 15 17 5 7 8 -35 9 -33 1 -68 3 -77 5 -10 2 -18 1 -18 -2z"/>
<path d="M4070 1516 c0 -2 7 -7 16 -10 8 -3 12 -2 9 4 -6 10 -25 14 -25 6z"/>
<path d="M2805 1500 c-3 -5 -1 -10 4 -10 6 0 11 5 11 10 0 6 -2 10 -4 10 -3 0
-8 -4 -11 -10z"/>
<path d="M3224 1501 c5 -8 56 -3 56 5 0 2 -14 4 -31 4 -16 0 -28 -4 -25 -9z"/>
<path d="M4478 1493 c6 -2 18 -2 25 0 6 3 1 5 -13 5 -14 0 -19 -2 -12 -5z"/>
<path d="M4505 1476 c-50 -23 -50 -23 -20 -28 l30 -5 -27 -2 c-16 0 -28 -5
-28 -10 0 -4 12 -7 28 -4 23 3 24 2 7 -6 -16 -7 -8 -10 33 -10 30 -1 52 3 52
10 0 6 -8 8 -18 5 -13 -4 -19 -1 -19 9 0 10 6 13 19 9 15 -4 18 0 18 25 0 37
-8 38 -75 7z"/>
<path d="M4875 1480 c-3 -5 -15 -10 -26 -10 -17 0 -18 -3 -9 -20 6 -11 16 -20
23 -20 8 0 7 4 -3 10 -11 8 -3 9 28 6 46 -5 52 2 24 27 -21 20 -28 21 -37 7z"/>
<path d="M2876 1464 c-3 -8 1 -14 9 -14 20 0 28 17 11 23 -8 3 -17 -1 -20 -9z"/>
<path d="M3298 1473 c6 -2 18 -2 25 0 6 3 1 5 -13 5 -14 0 -19 -2 -12 -5z"/>
<path d="M4100 1465 c0 -8 -5 -15 -12 -15 -6 0 -9 -3 -5 -6 3 -3 15 1 27 9 17
12 18 15 5 20 -9 4 -15 1 -15 -8z"/>
<path d="M3233 1455 c0 -8 7 -15 16 -16 9 -1 5 -5 -9 -9 l-25 -8 26 -1 c14 -1
43 8 65 19 l39 21 -48 -5 c-29 -3 -45 -1 -42 4 4 6 0 10 -8 10 -7 0 -14 -7
-14 -15z"/>
<path d="M3508 1463 c6 -2 18 -2 25 0 6 3 1 5 -13 5 -14 0 -19 -2 -12 -5z"/>
<path d="M3558 1443 c7 -3 16 -2 19 1 4 3 -2 6 -13 5 -11 0 -14 -3 -6 -6z"/>
<path d="M3303 1423 c9 -2 23 -2 30 0 6 3 -1 5 -18 5 -16 0 -22 -2 -12 -5z"/>
<path d="M3558 1413 c18 -2 45 -2 60 0 15 2 0 4 -33 4 -33 0 -45 -2 -27 -4z"/>
<path d="M4855 1410 c17 -4 23 -8 13 -9 -9 -1 -15 -8 -14 -18 4 -24 113 -32
113 -8 0 8 -4 15 -9 15 -5 0 -6 5 -3 10 9 14 -16 12 -45 -5 -14 -8 -29 -14
-35 -14 -5 0 -2 4 8 10 28 17 19 29 -20 28 -38 -1 -38 -1 -8 -9z"/>
<path d="M2858 1403 c7 -3 16 -2 19 1 4 3 -2 6 -13 5 -11 0 -14 -3 -6 -6z"/>
<path d="M3245 1400 c-16 -7 -13 -9 18 -9 20 -1 37 4 37 9 0 12 -27 12 -55 0z"/>
<path d="M4063 1403 c9 -2 23 -2 30 0 6 3 -1 5 -18 5 -16 0 -22 -2 -12 -5z"/>
<path d="M4505 1390 c38 -5 42 -7 18 -8 -38 -2 -45 -22 -8 -22 14 0 25 -5 25
-11 0 -7 -14 -8 -42 -4 l-43 7 24 -21 c16 -14 38 -21 63 -21 34 0 38 3 38 25
0 14 -6 25 -12 25 -9 0 -8 4 2 10 13 9 13 10 0 10 -13 0 -13 1 0 10 10 7 -5 9
-50 8 l-65 -1 50 -7z"/>
<path d="M3239 1371 c11 -7 11 -10 0 -17 -10 -6 -7 -10 11 -15 24 -7 24 -7 3
-8 -16 -1 -23 -7 -23 -21 0 -18 6 -20 58 -19 l57 1 -50 12 -50 12 48 8 c44 7
47 9 30 21 -17 14 -17 14 2 15 43 1 -10 20 -55 20 -29 0 -40 -3 -31 -9z"/>
<path d="M2860 1359 c0 -13 10 -21 63 -47 5 -3 4 5 -3 18 -6 12 -18 19 -26 16
-7 -3 -18 3 -23 12 -9 15 -10 15 -11 1z"/>
<path d="M4098 1363 c6 -2 18 -2 25 0 6 3 1 5 -13 5 -14 0 -19 -2 -12 -5z"/>
<path d="M4867 1348 c-6 -4 15 -7 48 -7 64 1 65 5 2 11 -20 2 -43 0 -50 -4z"/>
<path d="M2767 1270 c-15 -44 -27 -84 -27 -90 0 -11 120 -14 120 -2 1 15 -54
172 -60 172 -3 0 -18 -36 -33 -80z"/>
<path d="M3996 1307 c-8 -23 -22 -63 -30 -89 l-14 -48 65 0 c48 0 64 3 61 13
-3 6 -15 45 -27 84 -13 40 -26 75 -31 78 -4 2 -15 -14 -24 -38z"/>
<path d="M4103 1330 c20 -11 39 -20 42 -20 3 0 0 9 -7 20 -8 13 -24 20 -43 20
l-30 0 38 -20z"/>
<path d="M3535 1321 c-3 -6 10 -7 32 -4 50 8 55 13 10 13 -20 0 -38 -4 -42 -9z"/>
<path d="M2740 1300 c-9 -6 -10 -10 -3 -10 6 0 15 5 18 10 8 12 4 12 -15 0z"/>
<path d="M3550 1300 c-9 -6 -10 -10 -3 -10 6 0 15 5 18 10 8 12 4 12 -15 0z"/>
<path d="M3957 1303 c-4 -3 -7 -11 -7 -17 0 -6 5 -5 12 2 6 6 9 14 7 17 -3 3
-9 2 -12 -2z"/>
<path d="M4890 1300 l-35 -7 35 -3 c25 -2 29 -4 12 -7 -12 -2 -26 -13 -32 -23
-11 -21 3 -29 58 -32 30 -1 26 -3 -18 -8 -35 -4 -44 -7 -23 -8 17 -1 35 -6 38
-12 3 -5 21 -10 38 -9 27 0 29 2 12 9 -11 5 -14 9 -7 9 7 1 10 6 7 11 -3 6 0
10 7 11 7 0 4 4 -7 9 l-20 9 20 2 c11 1 -7 5 -40 9 l-60 7 58 1 c43 2 57 6 57
17 0 8 -6 15 -12 15 -7 0 -22 2 -33 4 -11 2 -36 0 -55 -4z"/>
<path d="M4548 1293 c6 -2 18 -2 25 0 6 3 1 5 -13 5 -14 0 -19 -2 -12 -5z"/>
<path d="M2880 1282 c47 -16 95 -23 84 -12 -5 5 -32 12 -59 15 -34 3 -42 2
-25 -3z"/>
<path d="M4095 1281 c11 -4 36 -11 55 -14 l35 -6 -30 14 c-16 8 -41 14 -55 14
-22 0 -23 -1 -5 -8z"/>
<path d="M3518 1273 c12 -2 30 -2 40 0 9 3 -1 5 -23 4 -22 0 -30 -2 -17 -4z"/>
<path d="M4515 1270 c28 -4 40 -8 28 -8 -21 -2 -34 -21 -15 -23 4 0 17 -2 30
-3 12 -2 22 2 22 9 0 23 -25 35 -69 33 l-46 -1 50 -7z"/>
<path d="M3241 1261 c-9 -6 2 -9 30 -9 30 -1 39 2 29 8 -19 12 -41 12 -59 1z"/>
<path d="M2887 1237 c13 -6 32 -6 50 0 25 9 23 10 -22 10 -39 0 -45 -2 -28
-10z"/>
<path d="M3458 1243 c7 -3 16 -2 19 1 4 3 -2 6 -13 5 -11 0 -14 -3 -6 -6z"/>
<path d="M4097 1237 c15 -6 34 -7 55 -1 31 9 29 10 -22 11 -45 0 -51 -1 -33
-10z"/>
<path d="M4475 1240 c3 -5 12 -7 20 -3 21 7 19 13 -6 13 -11 0 -18 -4 -14 -10z"/>
<path d="M3258 1233 c17 -2 47 -2 65 0 17 2 3 4 -33 4 -36 0 -50 -2 -32 -4z"/>
<path d="M3425 1210 c-8 -13 25 -13 45 0 12 8 9 10 -12 10 -15 0 -30 -4 -33
-10z"/>
<path d="M4491 1196 l-23 -13 29 -6 c36 -7 77 3 81 21 3 16 -56 15 -87 -2z"/>
<path d="M3278 1193 c7 -3 16 -2 19 1 4 3 -2 6 -13 5 -11 0 -14 -3 -6 -6z"/>
<path d="M3483 1193 c9 -2 23 -2 30 0 6 3 -1 5 -18 5 -16 0 -22 -2 -12 -5z"/>
<path d="M4883 1193 c9 -2 23 -2 30 0 6 3 -1 5 -18 5 -16 0 -22 -2 -12 -5z"/>
<path d="M2898 1173 c7 -3 16 -2 19 1 4 3 -2 6 -13 5 -11 0 -14 -3 -6 -6z"/>
<path d="M3298 1168 c17 -8 26 -8 34 0 9 9 4 12 -22 11 -33 0 -34 -1 -12 -11z"/>
<path d="M3432 1173 c-22 -9 -1 -23 36 -24 34 -1 35 -2 12 -9 -18 -6 -6 -8 42
-7 66 1 67 2 47 20 -20 19 -108 31 -137 20z"/>
<path d="M4108 1173 c6 -2 18 -2 25 0 6 3 1 5 -13 5 -14 0 -19 -2 -12 -5z"/>
<path d="M4885 1170 c3 -5 -1 -10 -9 -10 -34 0 -14 -18 24 -22 29 -3 40 0 40
10 0 9 7 12 20 9 13 -3 20 0 20 9 0 10 -14 14 -51 14 -31 0 -48 -4 -44 -10z"/>
<path d="M2920 1160 c-7 -4 4 -10 25 -13 36 -6 65 -1 65 12 0 9 -75 10 -90 1z"/>
<path d="M4137 1158 c-8 -5 -8 -8 3 -8 8 0 24 -3 35 -6 11 -3 29 1 39 9 18 13
16 14 -23 13 -23 0 -48 -4 -54 -8z"/>
<path d="M4472 1158 c2 -7 17 -16 33 -19 l30 -5 -35 -11 c-32 -10 -32 -11 -9
-12 81 -3 121 31 52 43 -21 4 -46 9 -56 12 -11 4 -17 1 -15 -8z"/>
<path d="M2731 1156 c11 -9 69 -15 64 -6 -3 6 -20 10 -37 10 -17 0 -29 -2 -27
-4z"/>
<path d="M3951 1156 c11 -9 69 -15 64 -6 -3 6 -20 10 -37 10 -17 0 -29 -2 -27
-4z"/>
<path d="M3275 1141 c3 -6 22 -11 42 -11 44 0 41 5 -10 14 -27 5 -37 4 -32 -3z"/>
<path d="M2920 1119 c0 -5 11 -9 24 -9 13 0 33 -3 43 -6 12 -5 15 -4 8 4 -13
14 -75 23 -75 11z"/>
<path d="M4149 1120 c-6 -4 6 -9 29 -12 22 -2 39 0 36 3 -6 11 -52 17 -65 9z"/>
<path d="M4878 1113 c-35 -9 -17 -20 29 -19 27 1 48 6 50 14 5 12 -41 15 -79
5z"/>
<path d="M3255 1101 l-30 -7 38 -5 c20 -3 37 -2 37 2 0 4 12 10 28 12 22 3 21
4 -8 4 -19 0 -48 -2 -65 -6z"/>
<path d="M3520 1090 c30 -4 44 -8 30 -9 -14 -1 -32 -6 -40 -12 -13 -9 -12 -10
2 -5 10 3 20 1 23 -4 4 -6 14 -10 23 -9 14 0 13 2 -3 9 -19 8 -19 9 3 9 14 1
22 6 20 14 -3 7 -25 12 -59 13 l-54 1 55 -7z"/>
<path d="M4470 1080 c0 -16 7 -20 33 -21 26 0 28 -2 12 -8 -11 -5 -26 -6 -32
-4 -7 3 -13 0 -13 -6 0 -6 5 -11 11 -11 8 0 8 -4 -1 -15 -10 -12 -6 -14 27
-10 21 2 44 4 51 4 7 1 10 6 7 11 -3 6 -1 10 4 10 6 0 11 16 11 35 l0 35 -55
0 c-48 0 -55 -2 -55 -20z"/>
<path d="M2930 1080 c-13 -8 -12 -10 5 -11 11 -1 31 -3 45 -4 31 -3 52 4 44
16 -7 12 -75 11 -94 -1z"/>
<path d="M4144 1079 c-3 -5 4 -9 15 -9 22 0 40 -19 19 -21 -7 -1 -17 -1 -21 0
-5 1 -6 -3 -2 -9 3 -6 10 -8 15 -5 13 8 60 -5 60 -17 0 -6 -14 -8 -35 -4 -38
8 -49 -10 -20 -34 8 -7 12 -16 9 -21 -3 -5 2 -9 10 -9 9 0 16 -3 16 -7 0 -5
25 -8 55 -9 30 0 55 1 55 2 0 4 -62 32 -85 38 -11 3 3 3 30 1 28 -2 42 -1 32
1 -9 3 -15 10 -12 15 4 5 -3 9 -14 9 -11 0 -23 5 -27 12 -4 7 -3 8 4 4 7 -4
12 -3 12 3 0 5 -6 12 -12 14 -7 3 -4 6 7 6 17 1 17 3 5 11 -8 5 -15 15 -15 22
0 15 -92 21 -101 7z m71 -19 c3 -5 1 -10 -4 -10 -6 0 -11 5 -11 10 0 6 2 10 4
10 3 0 8 -4 11 -10z"/>
<path d="M4836 1083 c-14 -14 -5 -23 23 -23 16 0 31 -5 33 -11 2 -6 13 -2 25
9 l22 19 -40 1 c-23 1 -44 4 -49 7 -4 2 -10 2 -14 -2z"/>
<path d="M3240 1060 c0 -5 21 -10 47 -10 55 0 52 9 -6 16 -25 3 -41 1 -41 -6z"/>
<path d="M2983 1052 c-31 -3 -48 -20 -20 -19 31 1 47 -4 47 -14 0 -7 -11 -8
-29 -4 -35 7 -47 -7 -25 -29 8 -9 13 -20 9 -25 -3 -5 16 -13 42 -16 27 -3 58
-8 71 -11 12 -2 22 -2 22 0 0 6 -59 34 -85 39 -11 3 2 3 29 0 42 -3 47 -2 34
10 -8 8 -24 18 -36 21 -25 8 -30 36 -7 36 8 0 15 4 15 8 0 9 -19 10 -67 4z"/>
<path d="M3273 1028 c28 -7 42 -7 50 1 8 8 -2 11 -38 10 l-50 -1 38 -10z"/>
<path d="M3511 1026 c2 -2 42 -6 89 -9 62 -4 73 -3 40 3 -46 9 -137 13 -129 6z"/>
<path d="M3237 1013 c-4 -3 -7 -11 -7 -17 0 -6 5 -5 12 2 6 6 9 14 7 17 -3 3
-9 2 -12 -2z"/>
<path d="M4797 1004 c-21 -21 14 -40 44 -24 24 13 25 30 2 30 -15 0 -16 -2 -3
-10 12 -8 11 -10 -7 -10 -12 0 -23 5 -25 11 -2 5 -7 7 -11 3z"/>
<path d="M3303 993 c9 -2 23 -2 30 0 6 3 -1 5 -18 5 -16 0 -22 -2 -12 -5z"/>
<path d="M3568 993 c23 -2 61 -2 85 0 23 2 4 4 -43 4 -47 0 -66 -2 -42 -4z"/>
<path d="M4555 990 c-3 -6 1 -7 9 -4 18 7 21 14 7 14 -6 0 -13 -4 -16 -10z"/>
<path d="M4483 983 c9 -2 25 -2 35 0 9 3 1 5 -18 5 -19 0 -27 -2 -17 -5z"/>
<path d="M3268 973 c12 -2 32 -2 45 0 12 2 2 4 -23 4 -25 0 -35 -2 -22 -4z"/>
<path d="M3610 973 c45 -3 60 -7 50 -13 -11 -7 -8 -10 13 -10 16 0 26 -4 22
-10 -3 -5 1 -10 11 -10 13 0 14 3 4 15 -6 8 -9 19 -5 25 4 7 -21 9 -77 8 -80
-2 -80 -2 -18 -5z"/>
<path d="M2622 950 c-7 -11 -8 -20 -3 -20 9 0 24 30 18 36 -1 2 -8 -6 -15 -16z"/>
<path d="M4746 963 c-3 -4 -25 -10 -49 -14 -40 -6 -38 -7 21 -8 49 -1 62 2 62
14 0 15 -21 20 -34 8z"/>
<path d="M3253 953 c15 -2 37 -2 50 0 12 2 0 4 -28 4 -27 0 -38 -2 -22 -4z"/>
<path d="M3582 948 c17 -6 33 -6 44 0 13 7 6 10 -27 10 -40 0 -42 -1 -17 -10z"/>
<path d="M3278 933 c6 -2 18 -2 25 0 6 3 1 5 -13 5 -14 0 -19 -2 -12 -5z"/>
<path d="M3330 930 c-12 -8 -11 -10 8 -10 12 0 22 5 22 10 0 13 -11 13 -30 0z"/>
<path d="M6443 5610 c46 -25 47 -38 5 -42 -27 -3 -22 -5 25 -12 63 -9 73 -21
27 -31 -47 -10 -25 -25 38 -26 l57 -1 -30 -14 c-28 -14 -26 -15 50 -10 l80 4
-43 -20 c-24 -11 -42 -21 -40 -23 1 -2 27 1 56 6 48 7 135 -1 148 -14 3 -3
-26 -10 -65 -17 -39 -6 -71 -14 -71 -17 0 -3 32 -3 70 1 56 5 70 3 70 -8 0
-19 -10 -21 -120 -36 -93 -13 -102 -27 -20 -30 31 -1 33 -2 13 -10 -42 -17
-24 -21 60 -15 77 6 81 5 57 -10 -23 -14 -20 -15 58 -9 70 6 82 4 82 -9 0 -10
-14 -18 -41 -22 -34 -6 -39 -9 -28 -20 8 -7 45 -23 82 -34 37 -11 75 -28 83
-36 9 -8 26 -15 39 -15 13 0 32 -3 42 -7 10 -4 -23 40 -73 97 -50 58 -110 138
-134 179 -55 96 -113 153 -176 175 -27 10 -104 21 -174 26 -69 5 -134 11 -145
15 -11 3 -3 -3 18 -15z"/>
<path d="M2525 5330 c10 -11 20 -20 23 -20 3 0 -3 9 -13 20 -10 11 -20 20 -23
20 -3 0 3 -9 13 -20z"/>
<path d="M8170 5230 c0 -5 5 -10 11 -10 5 0 7 5 4 10 -3 6 -8 10 -11 10 -2 0
-4 -4 -4 -10z"/>
<path d="M8265 5017 c22 -19 42 -33 44 -31 7 6 -16 28 -51 48 -32 18 -32 18 7
-17z"/>
<path d="M8142 5014 c10 -10 20 -15 24 -12 3 4 -5 12 -18 18 -22 12 -22 12 -6
-6z"/>
<path d="M5440 4061 c0 -25 -4 -32 -15 -27 -10 4 -15 -1 -15 -14 0 -11 -7 -20
-15 -20 -10 0 -15 -10 -15 -30 0 -38 -17 -39 -30 -2 -25 66 -28 66 -23 -5 6
-74 -4 -94 -26 -55 -9 14 -10 13 -11 -10 0 -16 -4 -28 -10 -28 -5 0 -10 -16
-10 -35 0 -21 -6 -37 -16 -43 -12 -7 -14 -17 -8 -46 l7 -38 37 71 c41 78 101
161 168 233 40 43 49 77 17 64 -7 -2 -18 1 -24 7 -8 8 -11 2 -11 -22z"/>
<path d="M3020 3993 c0 -6 8 -17 18 -24 16 -13 16 -13 2 6 -8 11 -16 22 -17
24 -2 2 -3 0 -3 -6z"/>
<path d="M6552 2405 c11 -20 23 -34 25 -31 5 5 -35 66 -42 66 -3 0 5 -16 17
-35z"/>
<path d="M6560 2316 c0 -2 8 -10 18 -17 15 -13 16 -12 3 4 -13 16 -21 21 -21
13z"/>
</g>
</svg>
