<?xml version="1.0" standalone="no"?>
<!DOCTYPE svg PUBLIC "-//W3C//DTD SVG 20010904//EN"
 "http://www.w3.org/TR/2001/REC-SVG-20010904/DTD/svg10.dtd">
<svg version="1.0" xmlns="http://www.w3.org/2000/svg"
 width="648.000000pt" height="648.000000pt" viewBox="0 0 648.000000 648.000000"
 preserveAspectRatio="xMidYMid meet">
<metadata>
Created by potrace 1.14, written by Peter Selinger 2001-2017
</metadata>
<g transform="translate(0.000000,648.000000) scale(0.100000,-0.100000)"
fill="#000000" stroke="none">
<path d="M4305 5939 c-128 -67 -220 -242 -245 -463 -32 -277 88 -584 262 -670
68 -34 161 -36 225 -5 213 103 316 512 208 829 -51 149 -140 271 -229 311 -59
27 -169 26 -221 -2z"/>
<path d="M5385 5642 c-146 -51 -302 -207 -393 -394 -153 -313 -102 -611 116
-674 72 -21 149 -7 255 48 297 155 494 620 376 888 -25 57 -73 107 -124 131
-52 24 -162 25 -230 1z"/>
<path d="M3540 5170 c-117 -21 -222 -140 -275 -310 -26 -84 -32 -304 -11 -410
30 -155 119 -296 217 -345 63 -33 152 -34 211 -4 91 46 173 168 214 319 25 90
26 309 1 400 -63 233 -209 376 -357 350z"/>
<path d="M5828 4579 c-21 -5 -67 -22 -104 -39 -178 -81 -332 -242 -413 -432
-22 -55 -26 -77 -26 -169 0 -100 2 -108 30 -155 24 -37 45 -56 89 -79 52 -26
69 -30 135 -28 250 5 545 251 625 522 9 31 16 90 16 136 0 129 -47 204 -152
241 -44 15 -141 17 -200 3z"/>
<path d="M4330 4330 c-41 -11 -133 -49 -205 -85 -285 -142 -505 -344 -620
-571 -73 -143 -83 -247 -32 -356 29 -65 105 -146 163 -176 90 -46 296 -61 462
-33 l83 14 37 -27 c329 -241 602 -368 792 -370 63 -1 85 4 131 27 77 37 103
79 125 192 24 133 15 383 -19 520 -62 242 -171 458 -332 655 -113 137 -191
195 -295 219 -71 17 -207 12 -290 -9z"/>
<path d="M2332 3443 c-124 -51 -232 -201 -282 -388 -35 -132 -34 -422 1 -460
5 -5 9 -17 9 -27 0 -10 4 -26 9 -36 6 -9 20 -39 33 -66 30 -63 100 -141 150
-167 59 -30 126 -35 194 -13 48 14 72 30 125 84 179 177 246 514 159 795 -36
116 -117 228 -193 267 -57 28 -149 33 -205 11z"/>
<path d="M1228 3197 c-120 -45 -184 -169 -181 -352 2 -176 62 -341 182 -501
110 -147 240 -232 372 -242 178 -12 282 108 294 341 4 85 -37 280 -66 312 -5
5 -9 14 -9 21 0 6 -21 49 -47 95 -64 115 -201 253 -296 298 -81 39 -188 50
-249 28z"/>
<path d="M3145 2611 c-165 -64 -278 -295 -277 -561 2 -165 28 -265 102 -379
84 -130 210 -172 331 -111 54 28 138 126 176 206 72 152 93 413 44 560 -44
136 -113 234 -192 275 -51 26 -133 30 -184 10z"/>
<path d="M752 2146 c-104 -34 -162 -121 -162 -240 0 -132 44 -254 133 -375
150 -204 387 -332 555 -301 114 21 177 90 195 213 9 62 8 85 -7 145 -55 228
-249 449 -469 536 -83 33 -184 42 -245 22z"/>
<path d="M2142 1840 c-109 -23 -184 -76 -309 -219 -145 -165 -268 -375 -327
-556 -76 -233 -95 -523 -45 -682 13 -41 86 -106 137 -121 76 -23 230 -7 362
38 122 42 431 206 538 287 l33 25 67 -17 c141 -36 424 -29 491 13 91 56 156
131 181 207 16 47 16 193 1 208 -6 6 -11 20 -11 31 0 33 -76 177 -135 256
-168 224 -457 438 -690 509 -79 25 -226 35 -293 21z"/>
</g>
</svg>
